<?xml version="1.0" encoding="utf-8"?>
<!-- Generator: Adobe Illustrator 26.3.1, SVG Export Plug-In . SVG Version: 6.00 Build 0)  -->
<svg version="1.1" id="Layer_1" xmlns="http://www.w3.org/2000/svg" xmlns:xlink="http://www.w3.org/1999/xlink" x="0px" y="0px"
	 viewBox="0 0 512 256" style="enable-background:new 0 0 512 256;" xml:space="preserve">
<style type="text/css">
	.st0{fill:#FFFFFF;}
</style>
<path class="st0" d="M116.8,237.7c61.7,0,111.8-49.9,111.8-111.8S178.8,14,116.8,14C54.9,14,5,64.1,5,126.1
	c0,28.4,10.6,54.3,27.9,74.1C53.4,223.1,83.5,237.7,116.8,237.7z"/>
<path class="st0" d="M395.4,240.4c61.7,0,111.8-49.9,111.8-111.8S457.4,16.8,395.4,16.8S283.6,66.9,283.6,128.9
	c0,28.4,10.6,54.3,27.9,74.1C332,225.9,362.1,240.4,395.4,240.4z"/>
</svg>
