<?xml version="1.0" encoding="utf-8"?>
<!-- Generator: Adobe Illustrator 27.3.1, SVG Export Plug-In . SVG Version: 6.00 Build 0)  -->
<svg version="1.1" id="Camada_1" xmlns="http://www.w3.org/2000/svg" xmlns:xlink="http://www.w3.org/1999/xlink" x="0px" y="0px"
	 viewBox="0 0 512 512" style="enable-background:new 0 0 512 512;" xml:space="preserve">
<style type="text/css">
	.st0{fill:#020203;}
</style>
<path class="st0" d="M422.03,475.11l7.07-7.07c4.69-4.69,4.69-12.28,0-16.97L233.6,255.58L429.1,60.08c4.69-4.69,4.69-12.28,0-16.97
	l-7.07-7.07c-4.69-4.69-12.28-4.69-16.97,0L194.01,247.09c-4.69,4.69-4.69,12.28,0,16.97l211.05,211.05
	C409.74,479.8,417.34,479.8,422.03,475.11L422.03,475.11z"/>
<path class="st0" d="M274.67,475.11l7.07-7.07c4.69-4.69,4.69-12.28,0-16.97L86.25,255.58L281.74,60.08
	c4.69-4.69,4.69-12.28,0-16.97l-7.07-7.07c-4.69-4.69-12.28-4.69-16.97,0L46.65,247.09c-4.69,4.69-4.69,12.28,0,16.97L257.7,475.11
	C262.38,479.8,269.98,479.8,274.67,475.11L274.67,475.11z"/>
</svg>
