<?xml version="1.0" encoding="utf-8"?>
<!-- Generator: Adobe Illustrator 26.3.1, SVG Export Plug-In . SVG Version: 6.00 Build 0)  -->
<svg version="1.1" id="Layer_1" xmlns="http://www.w3.org/2000/svg" xmlns:xlink="http://www.w3.org/1999/xlink" x="0px" y="0px"
	 viewBox="0 0 512 512" style="enable-background:new 0 0 512 512;" xml:space="preserve">
<style type="text/css">
	.st0{stroke:#000000;stroke-width:32;stroke-miterlimit:10;}
	.st1{fill:none;stroke:#000000;stroke-width:32;stroke-miterlimit:10;}
	.st2{fill:none;stroke:#FFFFFF;stroke-width:32;stroke-miterlimit:10;}
</style>
<path class="st0" d="M322.4,395.2l-109.9-0.9c-7.9-0.1-15.7,2.7-21.7,7.9l-77.3,66c-5.1,4.4-13,0.6-12.7-6.1
	c2.9-81.9,11.4-69.9-46.5-71.7C27.8,379.5,17,345.3,17,326.3V279v-47.3c0-19,7.7-36.2,20.2-48.7c12.5-12.3,29.7-20,48.7-20h118.3
	h118.3c19,0,36.2,7.7,48.7,20.2s20.2,29.7,20.2,48.7v47.3v47.3c0,19-7.7,36.2-20.2,48.7C358.6,387.5,341.4,395.2,322.4,395.2z"/>
<path class="st1" d="M164,117.1c0-33.1,26.8-59.8,59.8-59.8h213.3c33.1,0,59.8,26.8,59.8,59.8V210c0,33.1-26.8,59.8-59.8,59.8"/>
<path class="st2" d="M100.8,245.8c69.9,0,139.7,0,209.6,0"/>
<path class="st2" d="M99.8,310.4c69.5,0,139.1,0,208.6,0"/>
</svg>
