<?xml version="1.0" encoding="utf-8"?>
<!-- Generator: Adobe Illustrator 26.5.0, SVG Export Plug-In . SVG Version: 6.00 Build 0)  -->
<svg version="1.1" id="Layer_1" xmlns="http://www.w3.org/2000/svg" xmlns:xlink="http://www.w3.org/1999/xlink" x="0px" y="0px"
	 viewBox="0 0 512 512" style="enable-background:new 0 0 512 512;" xml:space="preserve">
<style type="text/css">
	.st0{fill-rule:evenodd;clip-rule:evenodd;}
</style>
<path class="st0" d="M41,256.2c0,92.6,60.8,175.2,147.6,201.2c1,0.2,1.7,0.4,2.5,0.4c3.7,0,7.1-2.3,8.3-5.9c1.4-4.4-1.2-9-5.7-10.4
	C114,417.8,58.3,341.6,58.3,256.4c0-96.1,67.6-171.2,164.4-183.3l-42,62.3c-2.5,3.9-1.4,9,2.5,11.5c1.4,0.9,3.1,1.3,4.7,1.3
	c2.9,0,5.5-1.3,7.2-3.8l52-77.2c1.3-1.9,1.7-4.3,1.2-6.5c-0.5-2.3-2.1-4.1-4.1-5.2L157.6,7.2c-4.1-2.4-9.4-1-11.8,3
	c-2.4,4-1.1,9.2,3.1,11.4l64.4,36C113.2,73.2,41,155.6,41,256.2z M270.3,458.5l86.5,48.3c1.3,0.7,2.9,1.1,4.2,1.1
	c3,0,5.9-1.5,7.5-4.1c2.4-4,1.1-9.2-3.1-11.4l-64.4-36c100.4-15.9,172.6-98.2,172.6-198.9c0-92.6-60.8-175.2-147.7-201.2
	c-4.6-1.3-9.4,1.1-10.9,5.6c-1.4,4.4,1.2,9,5.7,10.4c79.8,23.8,135.4,100,135.4,185.2c0,96.1-67.6,171.2-164.4,183.3l42.1-62.3
	c2.5-3.9,1.4-9-2.5-11.5c-4-2.5-9.3-1.3-11.9,2.5l-52,77.2c-1.3,1.9-1.7,4.3-1.2,6.5C266.8,455.3,268.3,457.4,270.3,458.5z"/>
</svg>
