<?xml version="1.0" encoding="utf-8"?>
<!-- Generator: Adobe Illustrator 26.3.1, SVG Export Plug-In . SVG Version: 6.00 Build 0)  -->
<svg version="1.1" id="Layer_1" xmlns="http://www.w3.org/2000/svg" xmlns:xlink="http://www.w3.org/1999/xlink" x="0px" y="0px"
	 viewBox="0 0 512 512" style="enable-background:new 0 0 512 512;" xml:space="preserve">
<style type="text/css">
	.st0{fill:#595959;}
</style>
<path class="st0" d="M437.8,71.4H300.3c-13.2,0-25.6,5.2-35,14.6L70.8,281.7c-9.3,9.4-14.5,21.9-14.5,35.2s5.1,25.8,14.5,35.2
	l137.5,138.4c9.6,9.7,22.3,14.6,35,14.6s25.3-4.9,35-14.6l194.5-195.7c9.3-9.4,14.5-21.9,14.5-35.2V121.1
	C487.2,93.7,465.1,71.4,437.8,71.4L437.8,71.4z M371.9,237.2c-27.3,0-49.4-22.3-49.4-49.8c0-27.4,22.2-49.8,49.4-49.8
	c27.3,0,49.4,22.3,49.4,49.8C421.3,214.9,399.1,237.2,371.9,237.2L371.9,237.2z"/>
<path class="st0" d="M404.8,5H267.3c-13.2,0-25.6,5.2-35,14.6L37.9,215.3c-9.3,9.4-14.5,21.9-14.5,35.2c0,10.4,3.2,20.3,9,28.6
	c3.9-7.6,8.9-14.7,15.1-20.9L242,62.5c15.6-15.7,36.3-24.3,58.3-24.3h137.5c4.8,0,9.5,0.4,14.1,1.2C445.4,19.5,426.8,5,404.8,5
	L404.8,5z"/>
</svg>
