<?xml version="1.0" encoding="utf-8"?>
<!-- Generator: Adobe Illustrator 26.3.1, SVG Export Plug-In . SVG Version: 6.00 Build 0)  -->
<svg version="1.1" id="Layer_1" xmlns="http://www.w3.org/2000/svg" xmlns:xlink="http://www.w3.org/1999/xlink" x="0px" y="0px"
	 viewBox="0 0 512 512" style="enable-background:new 0 0 512 512;" xml:space="preserve">
<style type="text/css">
	.st0{fill:none;stroke:#231F20;stroke-width:36;stroke-miterlimit:10;}
</style>
<path class="st0" d="M205.2,143c0-65.9,68-76.7,112-48.3c50,32.2,0,95.5,0,161.3"/>
<g>
	<path class="st0" d="M353.9,395.1L181,420.9c-9.4,1.4-18.2-5.1-19.6-14.5l-17.9-119.8c-1.4-9.4,5.1-18.2,14.5-19.6l172.9-25.8
		c9.4-1.4,18.2,5.1,19.6,14.5l17.9,119.8C369.9,384.9,363.4,393.7,353.9,395.1z"/>
	<g>
		<line class="st0" x1="254.2" y1="312.2" x2="263.7" y2="375.7"/>
		
			<ellipse transform="matrix(0.1602 -0.9871 0.9871 0.1602 -92.5552 510.6144)" class="st0" cx="253.8" cy="309.7" rx="13.4" ry="13.4"/>
	</g>
</g>
</svg>
