<?xml version="1.0" encoding="utf-8"?>
<!-- Generator: Adobe Illustrator 21.1.0, SVG Export Plug-In . SVG Version: 6.00 Build 0)  -->
<svg version="1.1" id="Layer_1" xmlns="http://www.w3.org/2000/svg" xmlns:xlink="http://www.w3.org/1999/xlink" x="0px" y="0px"
	 viewBox="0 0 1024 202" style="enable-background:new 0 0 1024 202;" xml:space="preserve">
<style type="text/css">
	.st0{fill:#FFFFFF;}
	.st1{fill-rule:evenodd;clip-rule:evenodd;fill:#F39F1F;}
	.st2{fill-rule:evenodd;clip-rule:evenodd;fill:#DFDB1F;}
	.st3{fill-rule:evenodd;clip-rule:evenodd;fill:#E21F26;}
	.st4{fill-rule:evenodd;clip-rule:evenodd;fill:#C15527;}
	.st5{fill-rule:evenodd;clip-rule:evenodd;fill:#AE1F24;}
	.st6{fill-rule:evenodd;clip-rule:evenodd;fill:#B0C836;}
	.st7{fill-rule:evenodd;clip-rule:evenodd;fill:#A64E94;}
</style>
<g>
	<g>
		<path class="st0" d="M275,57.2c5.4,2.5,9.7,5.9,13,10.3c0.9,1.4,1.3,2.7,1.3,3.8c0,1.9-0.9,3.3-2.6,4.4c-0.8,0.6-1.8,0.8-3.1,0.8
			c-2.3,0-4.2-0.8-5.8-2.5c-5.4-6.1-12.7-9.2-22.1-9.2c-6,0-10.9,1.2-14.5,3.7c-3.6,2.5-5.4,5.6-5.4,9.3c0,4,1.7,7.1,5.1,9.5
			c3.4,2.4,9.4,4.3,18.1,5.7c11.7,2,20.1,5.2,25.2,9.6c5,4.4,7.6,10,7.6,16.5c0,5.1-1.5,9.5-4.5,13.5c-3,4-7.2,7-12.6,9.2
			c-5.4,2.2-11.5,3.3-18.3,3.3c-6.8,0-13.3-1.2-19.6-3.5c-6.3-2.3-11.3-5.5-15.1-9.7c-1.1-1.3-1.6-2.6-1.6-3.8
			c0-1.9,0.9-3.5,2.6-4.9c1.3-1,2.7-1.5,4.1-1.5c1.9,0,3.5,0.8,4.8,2.3c2.6,3.1,6.1,5.4,10.5,7.1c4.3,1.6,9.1,2.5,14.4,2.5
			c7.7,0,13.4-1.3,17.3-4c3.8-2.6,5.8-6.1,5.9-10.4c0-4-1.9-7.2-5.8-9.9c-3.8-2.6-9.9-4.6-18.3-5.9c-10.8-1.8-18.8-4.8-24.1-9.1
			c-5.3-4.3-8-9.6-8-15.7c0-8,3.1-14.2,9.3-18.6c6.2-4.4,14-6.6,23.3-6.6C263.3,53.5,269.6,54.8,275,57.2"/>
		<path class="st0" d="M382.7,59.5c7,4,12.5,9.5,16.5,16.5c4,7,6,14.8,6,23.4c0,8.6-1.9,16.3-5.8,23.3c-3.9,7-9.2,12.5-16,16.5
			c-6.7,4-14.3,6-22.6,6c-7.1,0-13.7-1.5-19.6-4.5c-5.9-3-10.8-7.2-14.7-12.4v48.2c0,1.9-0.6,3.4-1.8,4.6c-1.2,1.2-2.7,1.8-4.6,1.8
			c-1.9,0-3.4-0.6-4.5-1.8c-1.2-1.2-1.7-2.7-1.7-4.6v-36.9c-0.1-0.3-0.2-0.8-0.2-1.5V99.5c0-8.6,2-16.4,6-23.4
			c4-7,9.5-12.5,16.5-16.5c7-4,14.7-6,23.3-6C368,53.5,375.8,55.5,382.7,59.5 M376.5,129.3c5.1-3,9.1-7.1,12-12.3
			c2.9-5.2,4.4-11.1,4.4-17.5c0-6.5-1.5-12.3-4.4-17.5c-2.9-5.2-6.9-9.3-12-12.3c-5.1-3-10.8-4.5-17-4.5c-6.3,0-11.9,1.5-17,4.5
			c-5.1,3-9,7.1-11.9,12.3c-2.9,5.2-4.4,11.1-4.4,17.5c0,1.9,0.1,3.2,0.2,4.1c0.1,0.2,0.2,0.5,0.2,0.8c1.1,8.6,4.7,15.6,10.8,21.1
			c6.1,5.5,13.5,8.2,22.1,8.2C365.7,133.7,371.4,132.2,376.5,129.3"/>
		<path class="st0" d="M510.1,56.1c1.2,1.2,1.8,2.7,1.8,4.5V138c0,1.9-0.6,3.4-1.8,4.6c-1.2,1.2-2.7,1.8-4.6,1.8
			c-1.9,0-3.4-0.6-4.5-1.8c-1.2-1.2-1.7-2.7-1.7-4.6v-5.6c-3.6,4.1-8,7.2-13.2,9.5c-5.2,2.3-10.8,3.5-16.8,3.5
			c-7.8,0-14.8-1.6-21-4.9c-6.2-3.3-11.1-8.1-14.6-14.4c-3.5-6.3-5.3-13.9-5.3-22.6V60.6c0-1.8,0.6-3.2,1.8-4.4
			c1.2-1.2,2.7-1.8,4.4-1.8c1.9,0,3.4,0.6,4.6,1.8c1.2,1.2,1.8,2.7,1.8,4.4v42.8c0,9.8,2.7,17.2,8.1,22.3c5.4,5.1,12.5,7.7,21.3,7.7
			c5.4,0,10.2-1,14.6-3.1c4.3-2.1,7.8-5,10.3-8.6c2.5-3.7,3.8-7.8,3.8-12.3V60.6c0-1.9,0.6-3.4,1.7-4.5c1.2-1.2,2.7-1.7,4.5-1.7
			C507.3,54.4,508.9,54.9,510.1,56.1"/>
		<path class="st0" d="M653.6,58c5,3.1,8.9,7.4,11.7,13.1c2.8,5.7,4.2,12.2,4.2,19.7v47.4c0,1.9-0.6,3.4-1.7,4.5
			c-1.2,1.2-2.7,1.7-4.5,1.7c-1.9,0-3.4-0.6-4.6-1.7c-1.2-1.2-1.8-2.7-1.8-4.5V90.7c0-7.8-2-14-6-18.5c-4-4.6-9.2-6.8-15.7-6.8
			c-6.9,0-12.5,2.3-16.8,6.9c-4.3,4.6-6.4,10.6-6.3,18.1v0.3v47.4c0,1.9-0.6,3.4-1.7,4.5c-1.2,1.2-2.7,1.7-4.5,1.7
			c-1.9,0-3.4-0.6-4.6-1.7c-1.2-1.2-1.8-2.7-1.8-4.5V90.7c0-7.8-2-14-6-18.5c-4-4.6-9.2-6.8-15.7-6.8c-6.8,0-12.4,2.3-16.8,6.8
			c-4.4,4.5-6.6,10.3-6.6,17.3v48.7c0,1.9-0.6,3.4-1.7,4.5c-1.2,1.2-2.7,1.7-4.5,1.7c-1.9,0-3.4-0.6-4.6-1.7
			c-1.2-1.2-1.8-2.7-1.8-4.5V60.8c0-1.9,0.6-3.4,1.8-4.6c1.2-1.2,2.7-1.8,4.6-1.8c1.9,0,3.4,0.6,4.5,1.8c1.2,1.2,1.7,2.7,1.7,4.6
			v3.6c3.1-3.5,6.7-6.2,10.9-8.1c4.2-1.9,8.8-2.9,13.7-2.9c6,0,11.5,1.4,16.3,4.1c4.8,2.7,8.7,6.6,11.5,11.5
			c3.2-4.9,7.3-8.8,12.4-11.5c5.1-2.7,10.8-4.1,17.2-4.1C642.8,53.4,648.6,54.9,653.6,58"/>
		<path class="st0" d="M757.4,59.2c6.3,3.8,11.1,9,14.6,15.7c3.5,6.7,5.2,14.3,5.2,22.9c0,1.8-0.5,3.2-1.6,4.2
			c-1.1,1-2.5,1.6-4.3,1.6h-66.5c0.9,9,4.4,16.3,10.5,21.9c6.1,5.6,13.8,8.4,23,8.4c4,0,7.9-0.7,11.9-2.1c4-1.4,7.2-3.1,9.6-5.2
			c1.4-1.1,2.9-1.6,4.4-1.6c1.2,0,2.4,0.4,3.6,1.3c1.4,1.3,2.1,2.8,2.1,4.4c0,1.4-0.6,2.7-1.8,3.8c-3.6,3.1-8.2,5.6-13.8,7.7
			c-5.6,2-11,3-16.1,3c-8.8,0-16.6-1.9-23.5-5.8c-6.9-3.9-12.3-9.3-16.2-16.3c-3.9-7-5.8-14.8-5.8-23.6c0-8.9,1.8-16.8,5.5-23.8
			c3.7-7,8.8-12.4,15.3-16.3c6.5-3.9,14-5.8,22.3-5.8C743.9,53.5,751.1,55.4,757.4,59.2 M715.1,72.6c-5.5,5.2-8.8,12-10,20.4h60.3
			c-0.9-8.5-4-15.3-9.2-20.4c-5.3-5.2-12-7.7-20.3-7.7C727.5,64.9,720.6,67.5,715.1,72.6"/>
		<path class="st0" d="M808.3,130.7c1.9,1.9,2.8,4.2,2.8,6.8c0,2.6-0.9,4.9-2.8,6.7c-1.9,1.9-4.1,2.8-6.8,2.8
			c-2.6,0-4.9-0.9-6.8-2.8c-1.9-1.9-2.8-4.1-2.8-6.7c0-2.7,1-5,2.9-6.9c1.9-1.9,4.1-2.8,6.7-2.8
			C804.1,127.8,806.4,128.8,808.3,130.7"/>
		<path class="st0" d="M906.1,69.3c0.9,1,1.3,2.1,1.3,3.5c0,1.8-0.9,3.3-2.8,4.6c-1,0.7-2,1-3.1,1c-1.6,0-3.2-0.8-4.8-2.5
			c-3.3-3.6-6.9-6.3-10.9-8.1c-4-1.8-8.3-2.7-13.2-2.7c-6,0-11.4,1.5-16.1,4.4c-4.7,2.9-8.4,7-10.9,12.3c-2.6,5.3-3.9,11.2-3.9,17.8
			c0,6.5,1.4,12.3,4.1,17.5c2.7,5.2,6.6,9.3,11.5,12.3c4.9,3,10.6,4.4,17,4.4c8.8,0,15.9-2.4,21.2-7.1c1.4-1.2,2.9-1.8,4.4-1.8
			c1.3,0,2.5,0.4,3.6,1.3c1.5,1.3,2.3,2.8,2.3,4.4c0,1.4-0.5,2.6-1.6,3.6c-7.9,7.4-17.9,11-30,11c-8.6,0-16.2-2-23.1-6
			c-6.8-4-12.2-9.5-16.1-16.5c-3.9-7-5.8-14.7-5.8-23.3c0-8.8,1.9-16.7,5.6-23.6c3.7-7,8.9-12.4,15.5-16.4c6.6-4,14-5.9,22.2-5.9
			C886.4,53.5,897.5,58.8,906.1,69.3"/>
		<path class="st0" d="M996.6,59.5c6.9,4,12.4,9.4,16.4,16.5c4,7,6,14.9,6,23.5c0,8.7-2,16.5-5.9,23.5c-4,7-9.4,12.4-16.4,16.4
			c-7,4-14.8,5.9-23.5,5.9c-8.7,0-16.5-2-23.5-5.9c-7-4-12.4-9.4-16.4-16.4c-4-7-5.9-14.8-5.9-23.5c0-8.7,2-16.5,5.9-23.5
			c4-7,9.4-12.5,16.4-16.5c7-4,14.8-5.9,23.5-5.9C981.9,53.5,989.7,55.5,996.6,59.5 M956.2,69.5c-5.1,3-9.1,7.1-12,12.3
			c-2.9,5.2-4.4,11.1-4.4,17.7c0,6.5,1.5,12.3,4.4,17.5c2.9,5.2,6.9,9.3,12,12.3c5.1,3,10.8,4.4,17,4.4c6.4,0,12.1-1.5,17.1-4.4
			c5-3,9-7.1,11.9-12.3c2.9-5.2,4.3-11.1,4.3-17.5c0-6.6-1.4-12.5-4.3-17.7c-2.9-5.2-6.8-9.3-11.9-12.3c-5-3-10.8-4.4-17.1-4.4
			C967,65.1,961.3,66.5,956.2,69.5"/>
		<path class="st1" d="M109.1,134.1c0-5.6-0.9-11-2.5-16.1c-3.4,0.7-6.9,1.1-10.5,1.1c-2.9,0-5.8-0.2-8.6-0.7
			c-1.6,5-2.4,10.2-2.4,15.7c0,12.6,4.5,24.2,12,33.2C104.6,158.3,109.1,146.7,109.1,134.1"/>
		<path class="st2" d="M145.7,82.8c-5.6,17.8-20.6,31.5-39.1,35.3c1.6,5.1,2.5,10.5,2.5,16.1c0,12.6-4.5,24.2-12,33.2
			c9.5,11.5,23.9,18.8,40,18.8c28.7,0,52-23.3,52-52C189.2,108.3,170.4,86.8,145.7,82.8"/>
		<path class="st3" d="M46.6,83.1c-23.7,4.8-41.6,25.8-41.6,51c0,28.7,23.3,52,52,52c16.1,0,30.5-7.3,40-18.8
			c-7.5-9-12-20.6-12-33.2c0-5.5,0.9-10.8,2.4-15.7C68.2,115.2,52.5,101.3,46.6,83.1"/>
		<path class="st4" d="M87.5,118.4c2.8,0.5,5.7,0.7,8.6,0.7c3.6,0,7.1-0.4,10.5-1.1c-2.1-6.3-5.3-12.2-9.5-17.2
			C92.9,105.9,89.6,111.9,87.5,118.4"/>
		<path class="st5" d="M57.1,82c-3.6,0-7.1,0.4-10.5,1.1c5.9,18.2,21.6,32.1,40.9,35.3c2.1-6.5,5.3-12.4,9.6-17.5
			C87.6,89.4,73.2,82,57.1,82"/>
		<g>
			<path class="st6" d="M145.7,82.8c-2.8-0.5-5.7-0.7-8.6-0.7c-16.1,0-30.5,7.3-40,18.8c4.2,5,7.4,10.8,9.5,17.2
				C125.1,114.2,140.1,100.6,145.7,82.8"/>
		</g>
		<path class="st7" d="M96.1,15c-28.7,0-52,23.3-52,52c0,5.6,0.9,11,2.5,16.1C50,82.4,53.5,82,57.1,82c16.1,0,30.5,7.3,40,18.8
			c9.5-11.5,23.9-18.8,40-18.8c2.9,0,5.8,0.2,8.6,0.7c1.6-5,2.4-10.2,2.4-15.7C148.1,38.3,124.8,15,96.1,15"/>
	</g>
</g>
</svg>
