<?xml version="1.0" encoding="UTF-8" standalone="no"?>
<!-- Created with Inkscape (http://www.inkscape.org/) -->

<svg
   xmlns:dc="http://purl.org/dc/elements/1.1/"
   xmlns:cc="http://creativecommons.org/ns#"
   xmlns:rdf="http://www.w3.org/1999/02/22-rdf-syntax-ns#"
   xmlns:svg="http://www.w3.org/2000/svg"
   xmlns="http://www.w3.org/2000/svg"
   xmlns:sodipodi="http://sodipodi.sourceforge.net/DTD/sodipodi-0.dtd"
   xmlns:inkscape="http://www.inkscape.org/namespaces/inkscape"
   version="1.1"
   id="svg2"
   width="553.59998"
   height="73.599998"
   viewBox="0 0 553.59998 73.599998"
   sodipodi:docname="shimada-k.svg"
   inkscape:version="0.92.3 (2405546, 2018-03-11)">
  <metadata
     id="metadata8">
    <rdf:RDF>
      <cc:Work
         rdf:about="">
        <dc:format>image/svg+xml</dc:format>
        <dc:type
           rdf:resource="http://purl.org/dc/dcmitype/StillImage" />
        <dc:title></dc:title>
      </cc:Work>
    </rdf:RDF>
  </metadata>
  <defs
     id="defs6" />
  <sodipodi:namedview
     pagecolor="#ffffff"
     bordercolor="transparent"
     borderopacity="1"
     objecttolerance="10"
     gridtolerance="10"
     guidetolerance="10"
     inkscape:pageopacity="0"
     inkscape:pageshadow="2"
     inkscape:window-width="1920"
     inkscape:window-height="1017"
     id="namedview4"
     showgrid="false"
     inkscape:zoom="1.3728324"
     inkscape:cx="182.25462"
     inkscape:cy="22.502667"
     inkscape:window-x="-8"
     inkscape:window-y="-8"
     inkscape:window-maximized="1"
     inkscape:current-layer="svg2" />
  <path
     style="fill:#000000;fill-opacity:1;stroke:#000000;stroke-width:0.29136842;stroke-miterlimit:4;stroke-dasharray:none;stroke-opacity:1"
     d="M 2.4493789,69.64699 V 66.713019 H 8.2337578 C 17.201695,66.335295 17.658869,66.069594 25.991834,63.828708 29.331272,62.547232 30.723491,60.91334 32.565398,59.137064 36.587577,55.227954 37.4204,52.094683 35.661463,47.488971 29.181539,38.509731 19.783314,37.047725 10.139076,33.934074 4.8632707,31.150007 4.024672,29.765616 1.5388526,24.828811 0.21753184,19.199685 0.4769863,16.738611 3.3747013,10.901939 5.0402289,7.5471795 9.8757208,3.9755852 14.48434,2.6961305 17.757683,1.7873782 25.981891,1.6567427 35.844842,2.3568349 l 6.667693,0.4732862 V 5.99894 c 0,1.7428503 -0.08195,3.1683709 -0.182105,3.1678231 C 42.230272,9.1662153 39.362114,8.6749791 35.956746,8.0751273 22.528081,5.7096826 13.622742,7.5428716 9.5148851,13.518258 7.89523,15.874247 7.8425637,22.792139 9.4270601,25.054325 c 1.3776309,1.966843 5.1983569,3.823174 13.0538969,6.342343 3.205052,1.027818 7.239136,2.521341 8.964629,3.31894 4.973402,2.060798 7.71106,4.413048 10.424815,9.566526 0.995002,2.790088 0.98091,2.594452 1.184646,5.441938 0.315082,4.403685 0.12106,5.6687 -1.308449,8.531014 -3.706883,7.422315 -12.930948,12.321339 -24.858322,13.202587 -2.933499,0.21674 -7.3823185,0.558146 -9.8862657,0.75868 L 2.4493789,72.58096 Z"
     id="path4522"
     inkscape:connector-curvature="0"
     sodipodi:nodetypes="ccccccccssscssssssccsssscc" />
  <path
     style="fill:#000000;fill-opacity:1;stroke:#000000;stroke-width:0.29136842;stroke-miterlimit:4;stroke-dasharray:none;stroke-opacity:1"
     d="M 53.43885,36.847758 V 1.8835486 h 3.642105 3.642106 V 17.830878 c 0,13.869917 0.150094,16.004926 1.152206,16.389473 1.501841,0.57631 25.330587,0.57631 26.832427,0 1.002113,-0.384547 1.152207,-2.519556 1.152207,-16.389473 V 1.8835486 h 3.277895 3.277895 V 36.847758 71.811967 H 93.152002 89.888313 L 89.692002,55.968809 89.495691,40.125652 H 75.291481 61.087271 L 60.89096,55.968809 60.694648,71.811967 h -3.627898 -3.6279 z"
     id="path4524"
     inkscape:connector-curvature="0" />
  <path
     style="fill:#000000;fill-opacity:1;stroke:#000000;stroke-width:0.29136842;stroke-miterlimit:4;stroke-dasharray:none;stroke-opacity:1"
     d="M 111.71253,36.847758 V 1.8835486 h 3.2779 3.27789 V 36.847758 71.811967 h -3.27789 -3.2779 z"
     id="path4526"
     inkscape:connector-curvature="0" />
  <path
     style="fill:#000000;fill-opacity:1;stroke:#000000;stroke-width:0.29136842;stroke-miterlimit:4;stroke-dasharray:none;stroke-opacity:1"
     d="M 132.83674,36.44548 V 1.0789936 l 3.81133,0.2201723 3.81132,0.2201722 8.75394,17.2992469 c 5.65584,11.176894 9.14063,17.288776 9.84657,17.269662 0.68944,-0.01867 4.27898,-6.469393 9.72758,-17.481351 l 8.63494,-17.4517684 h 3.93032 3.93032 v 35.3284194 35.32842 h -3.2779 -3.27789 V 44.860389 c 0,-25.190516 -0.0833,-26.950213 -1.27474,-26.930681 -0.92045,0.01509 -3.21621,3.912299 -8.26014,14.022105 l -6.98541,14.001207 h -3.11842 c -3.57716,0 -3.05218,0.756026 -12.51899,-18.02842 -3.02291,-5.998168 -5.47475,-10.015789 -6.11235,-10.015789 -0.91479,0 -1.06469,3.794656 -1.06469,26.951578 v 26.951578 h -3.27789 -3.2779 z"
     id="path4528"
     inkscape:connector-curvature="0" />
  <path
     style="fill:#000000;fill-opacity:1;stroke:#000000;stroke-width:0.29136842;stroke-miterlimit:4;stroke-dasharray:none;stroke-opacity:1"
     d="m 199.26407,45.042494 0.2232,-26.769472 1.77426,-2.913684 c 2.2833,-3.749632 7.7783,-9.1139154 11.00275,-10.7410126 9.66087,-4.87500207 22.33146,-4.55270786 27.82213,0.7076951 l 2.01348,1.9290376 V 39.533512 71.811967 h -3.62789 -3.6279 l -0.19632,-15.843158 -0.19631,-15.843157 -12.74736,-0.207493 c -7.01106,-0.114122 -13.4849,-0.02593 -14.38632,0.195983 -1.63626,0.402815 -1.63895,0.429114 -1.63895,16.050651 v 15.647174 h -3.31898 -3.31899 z m 35.55161,-23.407802 c 0,-12.2687233 -0.004,-12.3023144 -1.79542,-13.475789 -2.39774,-1.5710622 -9.03783,-1.523288 -13.66671,0.09833 -4.01211,1.405551 -9.60743,6.329621 -11.68829,10.286104 -1.3384,2.544776 -2.52428,12.21001 -1.74673,14.236275 0.38341,0.999141 2.35711,1.154462 14.67008,1.154462 h 14.22707 z"
     id="path4530"
     inkscape:connector-curvature="0" />
  <path
     style="fill:#000000;fill-opacity:1;stroke:#000000;stroke-width:0.29136842;stroke-miterlimit:4;stroke-dasharray:none;stroke-opacity:1"
     d="M 256.66832,37.009462 V 1.5064057 l 7.50828,0.4651547 c 9.60671,0.5951567 9.88277,0.8047877 15.07277,2.0845382 3.64258,1.5972572 7.17916,3.3562647 9.91797,5.5839182 8.43498,6.9118292 12.36119,22.5270552 9.43477,37.5236622 -1.1226,5.752858 -2.46186,8.841272 -5.84062,13.468916 -4.22445,5.785919 -14.00642,10.160204 -24.26247,10.849649 -3.10152,0.208494 -7.03223,0.525599 -8.73492,0.704677 l -3.09578,0.325597 z m 17.73918,28.374344 c 7.97902,-2.319111 10.17831,-5.216583 13.88642,-9.597102 2.47525,-5.55421 2.72979,-5.703298 3.7102,-11.970959 2.30202,-14.716568 -2.50443,-27.927068 -11.92666,-32.780363 -3.12514,-1.6097286 -9.35018,-3.235238 -13.3666,-3.4903445 l -3.12255,-0.1983312 -0.19072,28.7711557 c -0.1049,15.824136 -0.0332,29.181557 0.15925,29.683157 3.76648,2.146073 7.60225,0.04576 10.85066,-0.417213 z"
     id="path4532"
     inkscape:connector-curvature="0"
     sodipodi:nodetypes="ccsccssssccccssscscc" />
  <path
     style="fill:#000000;fill-opacity:1;stroke:#000000;stroke-width:0.29136842;stroke-miterlimit:4;stroke-dasharray:none;stroke-opacity:1"
     d="m 310.57147,45.631799 c 0,-14.493348 0.28915,-26.358869 0.64773,-26.580485 1.36777,-2.965119 2.95469,-5.876949 4.96117,-8.353911 7.70478,-9.5950304 27.66259,-12.7132103 35.36478,-5.5253433 l 2.00316,1.869393 V 39.42671 71.811967 h -3.27789 -3.2779 V 56.164793 c 0,-15.621603 -0.003,-15.647834 -1.63895,-16.050428 -0.90142,-0.22179 -7.53915,-0.309982 -14.75052,-0.195984 l -13.11158,0.207271 -0.19631,15.843157 -0.19631,15.843158 h -3.26369 -3.26369 z m 35.54695,-11.84341 c 0.60575,-0.605755 0.8741,-4.391152 0.8741,-12.330288 V 10.001917 l -1.91928,-1.5097104 c -2.61029,-2.0532502 -10.39212,-2.104447 -14.92391,-0.098185 -8.23807,3.6470694 -13.02207,10.8189434 -13.02207,19.5218924 0,2.916393 0.36409,5.362462 0.87411,5.872475 1.23096,1.230965 26.88608,1.230965 28.11705,0 z"
     id="path4534"
     inkscape:connector-curvature="0"
     sodipodi:nodetypes="sccscccccscscccccscsccsscc" />
  <path
     style="fill:#ff3e00;fill-opacity:1;stroke:#ff3e00;stroke-width:0.29136842;stroke-miterlimit:4;stroke-dasharray:none;stroke-opacity:1"
     d="m 362.98732,6.1971554 c -1.12061,-2.0938871 -0.32788,-3.7373249 1.66615,-3.4541696 2.75526,0.3912491 2.45044,4.8971003 -0.33532,4.9567768 -0.28638,0.00613 -0.88525,-0.6700384 -1.33083,-1.5026072 z"
     id="path4536"
     inkscape:connector-curvature="0" />
  <path
     style="fill:#ff3e00;fill-opacity:1;stroke:#ff3e00;stroke-width:0.29136842;stroke-miterlimit:4;stroke-dasharray:none;stroke-opacity:1"
     d="m 364.87592,67.987756 c -0.15477,-0.500789 -0.60156,-9.433052 -0.99287,-19.849473 -0.91396,-24.329423 0.0994,-34.093679 3.11464,-30.011319 0.77103,1.043897 0.92041,6.234867 0.73365,25.494736 -0.12898,13.301173 -0.25892,24.429793 -0.28877,24.730267 -0.091,0.916459 -2.26625,0.607793 -2.56665,-0.364211 z"
     id="path4538"
     inkscape:connector-curvature="0" />
  <path
     style="fill:#ff3e00;fill-opacity:1;stroke:#ff3e00;stroke-width:0.29136842;stroke-miterlimit:4;stroke-dasharray:none;stroke-opacity:1"
     d="m 376.52899,48.188754 c -0.29166,-10.588977 -0.82085,-20.504608 -1.176,-22.034736 -0.35514,-1.530127 -0.65353,-4.666839 -0.66309,-6.97047 -0.0165,-3.966137 0.0775,-4.188421 1.77067,-4.188421 2.22365,0 2.3587,0.745399 2.93993,16.226607 0.2373,6.320529 0.61609,11.973014 0.84175,12.561079 0.78941,2.05717 1.57117,0.305379 2.76659,-6.19943 0.66277,-3.606413 1.68495,-7.7057 2.2715,-9.109527 0.95868,-2.294449 1.35149,-2.552414 3.8866,-2.552414 3.28705,0 4.79899,1.719171 5.51176,6.26719 1.04737,6.683039 2.08083,11.214915 2.55748,11.214915 0.5922,0 2.19085,-3.292155 2.22737,-4.586906 0.0136,-0.481939 0.65805,-2.18741 1.43213,-3.789936 0.77407,-1.602526 1.44495,-3.405368 1.49084,-4.006316 0.12542,-1.642325 3.08348,-6.692948 4.39374,-7.501914 0.78585,-0.485186 1.81826,-0.389567 3.26127,0.302052 2.95907,1.418244 4.03056,6.219457 4.69548,21.039862 0.40832,9.101036 0.84027,12.593707 1.77919,14.386402 1.54355,2.947131 1.23633,4.847787 -0.8314,5.14349 -3.12459,0.446841 -4.11001,-2.623491 -4.72304,-14.715874 -0.62379,-12.304397 -1.60055,-17.197176 -3.43313,-17.197176 -1.27065,0 -3.17653,3.745126 -4.0776,8.012632 -0.29607,1.40221 -0.79119,2.877263 -1.10026,3.277894 -0.30908,0.400632 -0.80344,2.190869 -1.09858,3.978305 -0.29515,1.787435 -0.8041,3.754172 -1.131,4.370526 -0.32689,0.616353 -0.7843,2.022064 -1.01644,3.1238 -0.31444,1.492273 -0.85553,2.003158 -2.12159,2.003158 -1.81379,0 -1.73303,0.263363 -4.13222,-13.475789 -0.41977,-2.403789 -1.07595,-4.93971 -1.45818,-5.635379 -0.38224,-0.695669 -0.69498,-1.785019 -0.69498,-2.420779 0,-0.697862 -0.49291,-1.061 -1.24387,-0.916378 -1.42057,0.273577 -2.78172,4.112998 -4.34303,12.250431 -3.70349,19.302415 -3.74775,19.460303 -5.59381,19.95558 -0.86166,0.231174 -1.76716,0.424791 -2.01223,0.430262 -0.24507,0.0055 -0.6842,-8.653762 -0.97585,-19.24274 z"
     id="path4540"
     inkscape:connector-curvature="0" />
  <path
     style="fill:#ff3e00;fill-opacity:1;stroke:#ff3e00;stroke-width:0.29136842;stroke-miterlimit:4;stroke-dasharray:none;stroke-opacity:1"
     d="m 425.94574,67.601437 c -0.44489,-0.288314 -1.34631,-1.573245 -2.00316,-2.855402 -1.61979,-3.161806 -1.69159,-23.349247 -0.10878,-30.584655 0.59702,-2.729124 1.46788,-6.678908 1.93525,-8.777299 1.38867,-6.234942 5.72152,-7.892008 9.54668,-3.65106 4.6119,5.113205 5.28051,7.727343 5.26313,20.577894 l -0.0158,11.654737 -2.4007,4.72633 c -1.32039,2.599482 -2.97289,5.259407 -3.67223,5.910944 -2.70511,2.52019 -6.97196,4.017564 -8.54444,2.998511 z m 6.67103,-7.186362 c 0.98245,-1.06008 1.78627,-2.515788 1.78627,-3.234906 0,-0.719117 0.29927,-1.492444 0.66504,-1.718503 0.36578,-0.22606 0.83875,-1.63851 1.05106,-3.138779 0.21231,-1.500269 0.79206,-5.435003 1.28833,-8.743854 1.4493,-9.663051 -0.78003,-18.386012 -4.69891,-18.386012 -1.82837,0 -4.13288,2.012574 -4.13288,3.609318 0,0.659043 -0.34207,1.540328 -0.76015,1.95841 -0.96267,0.962664 -1.81118,21.822668 -1.11449,27.398774 0.47785,3.824584 0.67714,4.18297 2.32604,4.18297 1.01452,0 2.58482,-0.843141 3.58969,-1.927418 z"
     id="path4542"
     inkscape:connector-curvature="0" />
  <path
     style="fill:#ff3e00;fill-opacity:1;stroke:#ff3e00;stroke-width:0.29136842;stroke-miterlimit:4;stroke-dasharray:none;stroke-opacity:1"
     d="m 429.3041,13.484129 c 0,-1.683127 0.87684,-3.158608 3.52985,-5.9397329 3.66399,-3.8409312 5.2112,-4.0938654 5.2112,-0.8519153 0,1.9856588 -6.04453,9.0310672 -7.7481,9.0310672 -0.623,0 -0.99295,-0.834352 -0.99295,-2.239419 z"
     id="path4544"
     inkscape:connector-curvature="0" />
  <path
     style="fill:#ff3e00;fill-opacity:1;stroke:#ff3e00;stroke-width:0.29136842;stroke-miterlimit:4;stroke-dasharray:none;stroke-opacity:1"
     d="m 463.9041,66.814968 c -0.80127,-0.696149 -1.84961,-1.905298 -2.32964,-2.686995 -6.39087,-10.406922 -10.21792,-17.228104 -13.86085,-24.705033 -1.37326,-2.818561 -2.77581,-5.656222 -3.11676,-6.305914 -0.65654,-1.251032 0.37864,-2.825058 1.85793,-2.825058 1.40595,0 2.9253,2.233768 6.93633,10.197895 4.68698,9.306239 8.51335,15.296841 9.77054,15.296841 1.14821,0 1.67615,-5.151103 2.29567,-22.398946 l 0.45133,-12.565263 h 2.02321 c 1.89998,0 2.03858,0.215719 2.27562,3.541663 0.29879,4.192543 -0.57256,27.578609 -1.37173,36.815525 -0.4938,5.707455 -0.73592,6.51053 -2.01797,6.693311 -0.80126,0.114236 -2.11242,-0.361876 -2.91368,-1.058026 z"
     id="path4546"
     inkscape:connector-curvature="0" />
  <path
     style="fill:#ff3e00;fill-opacity:1;stroke:#ff3e00;stroke-width:0.29136842;stroke-miterlimit:4;stroke-dasharray:none;stroke-opacity:1"
     d="m 482.31251,66.898709 c -2.63282,-1.63263 -3.71418,-4.504956 -4.1818,-11.107771 -0.3816,-5.388167 -0.41494,-5.463761 -2.57188,-5.832053 -2.70342,-0.461602 -3.25661,-2.775911 -1.12469,-4.705267 0.81889,-0.741093 1.4889,-1.788324 1.4889,-2.327178 0,-0.538854 0.32779,-0.979735 0.72842,-0.979735 0.40064,0 0.72842,-0.360199 0.72842,-0.800441 0,-1.405346 5.97821,-14.279577 7.42349,-15.986671 2.14292,-2.531114 4.62374,-3.608677 8.30809,-3.608677 3.23171,0 4.11798,0.334606 6.38408,2.410269 2.99385,2.742261 4.12046,6.379967 2.55925,8.263533 -1.16022,1.399766 -11.38571,8.165023 -15.88901,10.512272 -1.69028,0.881025 -3.37522,2.396128 -3.74431,3.366894 -0.87972,2.313852 -0.84661,14.833424 0.0429,16.238609 0.47935,0.757192 1.88675,1.081614 4.58435,1.056744 3.30399,-0.03046 4.35607,-0.408299 6.95709,-2.498534 2.7528,-2.212211 8.86877,-9.505084 8.86877,-10.575398 0,-1.414256 3.41709,-4.736495 4.87172,-4.736495 3.85649,0 1.12704,5.988825 -6.06892,13.316128 -7.93035,8.075085 -14.7164,10.876347 -19.36491,7.993771 z m 8.71331,-31.21711 c 6.31807,-3.677384 8.19747,-6.679603 5.47512,-8.746161 -2.04689,-1.553809 -4.84289,-1.172103 -7.24564,0.989162 -2.50374,2.252099 -5.31963,7.107968 -5.31963,9.173442 0,1.122439 0.35535,1.277035 2.00316,0.871483 1.10174,-0.271154 3.39088,-1.300721 5.08699,-2.287926 z"
     id="path4548"
     inkscape:connector-curvature="0" />
  <path
     style="fill:#ff3e00;fill-opacity:1;stroke:#ff3e00;stroke-width:0.29136842;stroke-miterlimit:4;stroke-dasharray:none;stroke-opacity:1"
     d="m 516.47754,68.351967 c -0.17769,-0.300474 -0.72911,-8.904947 -1.2254,-19.121052 -0.64404,-13.257818 -0.68727,-20.317469 -0.15103,-24.663 0.80967,-6.561233 1.88946,-8.714967 3.20223,-6.387077 0.82418,1.461482 1.03738,48.686433 0.22573,49.999709 -0.52566,0.850539 -1.597,0.940057 -2.05153,0.17142 z"
     id="path4550"
     inkscape:connector-curvature="0" />
  <path
     style="fill:#ff3e00;fill-opacity:1;stroke:#ff3e00;stroke-width:0.29136842;stroke-miterlimit:4;stroke-dasharray:none;stroke-opacity:1"
     d="m 514.67504,6.8368116 c -1.06488,-1.0648764 -1.14335,-3.2440414 -0.13917,-3.86466 0.40422,-0.2498196 1.38759,-0.2470758 2.18527,0.0061 1.75924,0.5583628 1.97388,3.647473 0.29811,4.2905249 -1.467,0.562943 -1.32272,0.5895298 -2.34421,-0.4319618 z"
     id="path4552"
     inkscape:connector-curvature="0" />
  <path
     style="fill:#ff3e00;fill-opacity:1;stroke:#ff3e00;stroke-width:0.29136842;stroke-miterlimit:4;stroke-dasharray:none;stroke-opacity:1"
     d="m 532.37567,68.898283 c -0.68852,-1.11405 -0.005,-1.838911 6.16463,-6.535277 6.09828,-4.642222 10.22484,-9.079961 10.22484,-10.995872 0,-2.001279 -5.84801,-3.870721 -6.88082,-2.1996 -0.22606,0.365771 -1.71874,0.885977 -3.31707,1.156013 -1.59833,0.270035 -3.09101,0.790241 -3.31707,1.156012 -0.80119,1.296355 -6.14702,0.7268 -7.82181,-0.83335 -1.37108,-1.277234 -1.60849,-2.27172 -1.60849,-6.737895 0,-6.10186 1.3699,-9.640084 5.36672,-13.861385 3.72867,-3.938079 8.68542,-6.31075 13.1838,-6.31075 3.4053,0 3.66632,0.127071 3.66632,1.784857 0,2.288585 -1.8946,3.388541 -4.27663,2.482896 -2.74158,-1.042348 -5.41725,-0.115673 -8.27726,2.866697 -3.56586,3.718419 -5.65663,8.187283 -5.65663,12.090602 0,2.640511 0.28187,3.34729 1.48756,3.72996 1.91185,0.606798 7.02496,-0.24275 9.69803,-1.611337 1.14418,-0.585809 3.53932,-1.12068 5.32254,-1.188602 2.67581,-0.10192 3.47911,0.190534 4.59824,1.674066 2.20984,2.929393 2.39324,5.674782 0.61672,9.231914 -1.82528,3.654773 -11.10445,12.971773 -14.02497,14.082153 -2.49183,0.947392 -4.57009,0.95502 -5.14865,0.0189 z"
     id="path4554"
     inkscape:connector-curvature="0" />
</svg>
