<svg
   xmlns:dc="http://purl.org/dc/elements/1.1/"
   xmlns:cc="http://creativecommons.org/ns#"
   xmlns:rdf="http://www.w3.org/1999/02/22-rdf-syntax-ns#"
   xmlns:svg="http://www.w3.org/2000/svg"
   xmlns="http://www.w3.org/2000/svg"
   xmlns:sodipodi="http://sodipodi.sourceforge.net/DTD/sodipodi-0.dtd"
   xmlns:inkscape="http://www.inkscape.org/namespaces/inkscape"
   version="1.1"
   id="heart"
   x="0px"
   y="0px"
   viewBox="0 0 128 128"
   style="enable-background:new 0 0 128 128;"
   xml:space="preserve"
   sodipodi:docname="alert-red.svg"
   inkscape:version="0.92.3 (2405546, 2018-03-11)"><metadata
   id="metadata59"><rdf:RDF><cc:Work
       rdf:about=""><dc:format>image/svg+xml</dc:format><dc:type
         rdf:resource="http://purl.org/dc/dcmitype/StillImage" /></cc:Work></rdf:RDF></metadata><defs
   id="defs57" /><sodipodi:namedview
   pagecolor="#ffffff"
   bordercolor="#666666"
   borderopacity="1"
   objecttolerance="10"
   gridtolerance="10"
   guidetolerance="10"
   inkscape:pageopacity="0"
   inkscape:pageshadow="2"
   inkscape:window-width="1920"
   inkscape:window-height="1043"
   id="namedview55"
   showgrid="false"
   inkscape:zoom="2.6074563"
   inkscape:cx="-2.8107889"
   inkscape:cy="55.615743"
   inkscape:window-x="1904"
   inkscape:window-y="0"
   inkscape:window-maximized="1"
   inkscape:current-layer="g52" />
<style
   type="text/css"
   id="style2">
	.st0{fill:#E2574C;}
</style>
<g
   id="g52">
	<g
   id="g8"
   style="stroke:#e2574c;stroke-opacity:1;stroke-width:4;stroke-miterlimit:4;stroke-dasharray:none">
		<g
   id="g6"
   style="stroke:#e2574c;stroke-opacity:1;stroke-width:4;stroke-miterlimit:4;stroke-dasharray:none">
			<path
   class="st0"
   d="M81.4,64.6c-1.3,0-2.4,1.1-2.4,2.4s1.1,2.4,2.4,2.4s2.4-1.1,2.4-2.4S82.7,64.6,81.4,64.6z"
   id="path4"
   style="stroke:#e2574c;stroke-opacity:1;stroke-width:4;stroke-miterlimit:4;stroke-dasharray:none" />
		</g>
	</g>
	<g
   id="g14"
   style="stroke:#e2574c;stroke-opacity:1;stroke-width:4;stroke-miterlimit:4;stroke-dasharray:none">
		<g
   id="g12"
   style="stroke:#e2574c;stroke-opacity:1;stroke-width:4;stroke-miterlimit:4;stroke-dasharray:none">
			<path
   class="st0"
   d="M102.8,102.7H100l-7.8-43.5c-1.4-7.9-8.3-13.7-16.4-13.7H53.6c-8.1,0-15,5.8-16.4,13.7l-7.8,43.5h-2.8     c-3.9,0-7.1,3.2-7.1,7.1v9.5c0,1.3,1.1,2.4,2.4,2.4h85.8c1.3,0,2.4-1.1,2.4-2.4v-9.5C110,105.9,106.8,102.7,102.8,102.7z      M41.8,60c1-5.7,6-9.8,11.7-9.8h22.2c5.8,0,10.7,4.1,11.7,9.8l7.6,42.7H34.2L41.8,60z M105.2,117h-81v-7.1c0-1.3,1.1-2.4,2.4-2.4     c5.4,0,73,0,76.3,0c1.3,0,2.4,1.1,2.4,2.4V117z"
   id="path10"
   style="stroke:#e2574c;stroke-opacity:1;stroke-width:4;stroke-miterlimit:4;stroke-dasharray:none" />
		</g>
	</g>
	<g
   id="g20"
   style="stroke:#e2574c;stroke-opacity:1;stroke-width:4;stroke-miterlimit:4;stroke-dasharray:none">
		<g
   id="g18"
   style="stroke:#e2574c;stroke-opacity:1;stroke-width:4;stroke-miterlimit:4;stroke-dasharray:none">
			<path
   class="st0"
   d="M89,95.1l-3.5-19.2c-0.2-1.3-1.5-2.2-2.8-1.9c-1.3,0.2-2.2,1.5-1.9,2.8L84.4,96c0.2,1.3,1.5,2.2,2.8,1.9     C88.4,97.6,89.3,96.4,89,95.1z"
   id="path16"
   style="stroke:#e2574c;stroke-opacity:1;stroke-width:4;stroke-miterlimit:4;stroke-dasharray:none" />
		</g>
	</g>
	<g
   id="g26"
   style="stroke:#e2574c;stroke-opacity:1;stroke-width:4;stroke-miterlimit:4;stroke-dasharray:none">
		<g
   id="g24"
   style="stroke:#e2574c;stroke-opacity:1;stroke-width:4;stroke-miterlimit:4;stroke-dasharray:none">
			<path
   class="st0"
   d="M123.3,64.6h-20.5c-1.3,0-2.4,1.1-2.4,2.4c0,1.3,1.1,2.4,2.4,2.4h20.5c1.3,0,2.4-1.1,2.4-2.4     C125.7,65.6,124.6,64.6,123.3,64.6z"
   id="path22"
   style="stroke:#e2574c;stroke-opacity:1;stroke-width:4;stroke-miterlimit:4;stroke-dasharray:none" />
		</g>
	</g>
	<g
   id="g32"
   style="stroke:#e2574c;stroke-opacity:1;stroke-width:4;stroke-miterlimit:4;stroke-dasharray:none">
		<g
   id="g30"
   style="stroke:#e2574c;stroke-opacity:1;stroke-width:4;stroke-miterlimit:4;stroke-dasharray:none">
			<path
   class="st0"
   d="M26.5,64.6H6c-1.3,0-2.4,1.1-2.4,2.4c0,1.3,1.1,2.4,2.4,2.4h20.5c1.3,0,2.4-1.1,2.4-2.4     C28.9,65.6,27.9,64.6,26.5,64.6z"
   id="path28"
   style="stroke:#e2574c;stroke-opacity:1;stroke-width:4;stroke-miterlimit:4;stroke-dasharray:none" />
		</g>
	</g>
	<g
   id="g38"
   style="stroke:#e2574c;stroke-opacity:1;stroke-width:4;stroke-miterlimit:4;stroke-dasharray:none">
		<g
   id="g36"
   style="stroke:#e2574c;stroke-opacity:1;stroke-width:4;stroke-miterlimit:4;stroke-dasharray:none">
			<path
   class="st0"
   d="M106.8,24.8c-0.9-0.9-2.4-0.9-3.4,0L90,38.3c-0.9,0.9-0.9,2.4,0,3.4c0.9,0.9,2.4,0.9,3.4,0l13.5-13.5     C107.7,27.2,107.7,25.7,106.8,24.8z"
   id="path34"
   style="stroke:#e2574c;stroke-opacity:1;stroke-width:4;stroke-miterlimit:4;stroke-dasharray:none" />
		</g>
	</g>
	<g
   id="g44"
   style="stroke:#e2574c;stroke-opacity:1;stroke-width:4;stroke-miterlimit:4;stroke-dasharray:none">
		<g
   id="g42"
   style="stroke:#e2574c;stroke-opacity:1;stroke-width:4;stroke-miterlimit:4;stroke-dasharray:none">
			<path
   class="st0"
   d="M39.4,38.3L25.9,24.8c-0.9-0.9-2.4-0.9-3.4,0c-0.9,0.9-0.9,2.4,0,3.4L36,41.7c0.9,0.9,2.4,0.9,3.4,0     C40.3,40.7,40.3,39.2,39.4,38.3z"
   id="path40"
   style="stroke:#e2574c;stroke-opacity:1;stroke-width:4;stroke-miterlimit:4;stroke-dasharray:none" />
		</g>
	</g>
	<g
   id="g50"
   style="stroke:#e2574c;stroke-opacity:1;stroke-width:4;stroke-miterlimit:4;stroke-dasharray:none">
		<g
   id="g48"
   style="stroke:#e2574c;stroke-opacity:1;stroke-width:4;stroke-miterlimit:4;stroke-dasharray:none">
			<path
   class="st0"
   d="M64.7,7.4c-1.3,0-2.4,1.1-2.4,2.4v19.1c0,1.3,1.1,2.4,2.4,2.4c1.3,0,2.4-1.1,2.4-2.4V9.7     C67.1,8.4,66,7.4,64.7,7.4z"
   id="path46"
   style="stroke:#e2574c;stroke-opacity:1;stroke-width:4;stroke-miterlimit:4;stroke-dasharray:none" />
		</g>
	</g>
</g>
</svg>