<svg
   xmlns:dc="http://purl.org/dc/elements/1.1/"
   xmlns:cc="http://creativecommons.org/ns#"
   xmlns:rdf="http://www.w3.org/1999/02/22-rdf-syntax-ns#"
   xmlns:svg="http://www.w3.org/2000/svg"
   xmlns="http://www.w3.org/2000/svg"
   id="svg14"
   version="1.1"
   class="svg-inline--fa fa-frown fa-w-16 fa-7x"
   viewBox="0 0 496 512"
   role="img"
   data-icon="frown"
   data-prefix="fas"
   focusable="false"
   aria-hidden="true">
  <metadata
     id="metadata20">
    <rdf:RDF>
      <cc:Work
         rdf:about="">
        <dc:format>image/svg+xml</dc:format>
        <dc:type
           rdf:resource="http://purl.org/dc/dcmitype/StillImage" />
        <dc:title></dc:title>
      </cc:Work>
    </rdf:RDF>
  </metadata>
  <defs
     id="defs18" />
  <path
     style="fill:#800000;fill-opacity:1"
     id="path12"
     class=""
     d="M248 8C111 8 0 119 0 256s111 248 248 248 248-111 248-248S385 8 248 8zm80 168c17.7 0 32 14.3 32 32s-14.3 32-32 32-32-14.3-32-32 14.3-32 32-32zm-160 0c17.7 0 32 14.3 32 32s-14.3 32-32 32-32-14.3-32-32 14.3-32 32-32zm170.2 218.2C315.8 367.4 282.9 352 248 352s-67.8 15.4-90.2 42.2c-13.5 16.3-38.1-4.2-24.6-20.5C161.7 339.6 203.6 320 248 320s86.3 19.6 114.7 53.8c13.6 16.2-11 36.7-24.5 20.4z"
     fill="currentColor" />
</svg>
