<svg
   xmlns:dc="http://purl.org/dc/elements/1.1/"
   xmlns:cc="http://creativecommons.org/ns#"
   xmlns:rdf="http://www.w3.org/1999/02/22-rdf-syntax-ns#"
   xmlns:svg="http://www.w3.org/2000/svg"
   xmlns="http://www.w3.org/2000/svg"
   id="svg4"
   version="1.1"
   class="svg-inline--fa fa-meh fa-w-16 fa-7x"
   viewBox="0 0 496 512"
   role="img"
   data-icon="meh"
   data-prefix="fas"
   focusable="false"
   aria-hidden="true">
  <metadata
     id="metadata10">
    <rdf:RDF>
      <cc:Work
         rdf:about="">
        <dc:format>image/svg+xml</dc:format>
        <dc:type
           rdf:resource="http://purl.org/dc/dcmitype/StillImage" />
        <dc:title></dc:title>
      </cc:Work>
    </rdf:RDF>
  </metadata>
  <defs
     id="defs8" />
  <path
     style="fill:#595959;fill-opacity:1"
     id="path2"
     class=""
     d="M248 8C111 8 0 119 0 256s111 248 248 248 248-111 248-248S385 8 248 8zm-80 168c17.7 0 32 14.3 32 32s-14.3 32-32 32-32-14.3-32-32 14.3-32 32-32zm176 192H152c-21.2 0-21.2-32 0-32h192c21.2 0 21.2 32 0 32zm-16-128c-17.7 0-32-14.3-32-32s14.3-32 32-32 32 14.3 32 32-14.3 32-32 32z"
     fill="#414141" />
</svg>
