<svg
   xmlns:dc="http://purl.org/dc/elements/1.1/"
   xmlns:cc="http://creativecommons.org/ns#"
   xmlns:rdf="http://www.w3.org/1999/02/22-rdf-syntax-ns#"
   xmlns:svg="http://www.w3.org/2000/svg"
   xmlns="http://www.w3.org/2000/svg"
   height="512"
   width="512"
   aria-hidden="true"
   focusable="false"
   data-prefix="fal"
   data-icon="funnel-dollar"
   role="img"
   viewBox="0 0 512 512"
   class="svg-inline--fa fa-funnel-dollar fa-w-20 fa-7x"
   version="1.1"
   id="svg4">
  <metadata
     id="metadata10">
    <rdf:RDF>
      <cc:Work
         rdf:about="">
        <dc:format>image/svg+xml</dc:format>
        <dc:type
           rdf:resource="http://purl.org/dc/dcmitype/StillImage" />
        <dc:title></dc:title>
      </cc:Work>
    </rdf:RDF>
  </metadata>
  <defs
     id="defs8" />
  <path
     d="m 371.21609,185.59339 c -3.76,0 -7.45601,0.27085 -11.144,0.55763 l 94.37595,-91.29944 c 13.56799,-13.5105 3.96,-36.71574 -15.272,-36.71574 H 21.624294 c -19.1839888,0 -28.863983,23.18134 -15.2719912,36.71574 L 179.2002,262.06792 v 144.98296 c 0,7.01813 3.43999,13.59813 9.21599,17.62101 l 59.19997,37.42472 c 3.856,2.68458 8.11999,3.90339 12.288,3.90339 11.19198,0 21.69598,-8.7866 21.69598,-21.52439 v -10.53118 c 24.34398,20.01083 55.56797,32.03167 89.61595,32.03167 C 449.08803,465.9761 512,403.21919 512,325.78873 512,248.23878 448.97604,185.59339 371.21609,185.59339 Z m -115.21594,250.13544 -50.99197,-30.47032 -0.208,-0.17525 V 251.28979 L 31.480288,83.62735 H 429.31205 L 308.75212,200.25898 c -46.40798,22.92642 -78.31996,70.43622 -78.31996,125.51382 0,29.99235 9.50401,57.69047 25.56799,80.46554 z m 115.21594,4.7478 c -63.51197,0 -115.18394,-51.45302 -115.18394,-114.69587 0,-63.24284 51.67197,-114.69586 115.18394,-114.69586 63.51196,0 115.18393,51.45302 115.18393,114.69586 0,63.24285 -51.67197,114.69587 -115.18393,114.69587 z m 21.68799,-121.51485 -35.99999,-10.75423 c -4.128,-1.23474 -7.016,-5.40101 -7.016,-10.14084 0,-5.79135 4.24,-10.50728 9.44,-10.50728 h 22.48798 c 3.64801,0 7.16801,1.02763 10.256,2.96339 2.592,1.61712 5.888,1.52152 8.104,-0.58153 l 9.39999,-8.92999 c 2.824,-2.68458 2.664,-7.33678 -0.456,-9.67084 -7.27999,-5.44085 -16.06399,-8.57949 -25.09598,-9.04152 v -12.97677 c 0,-3.52102 -2.86401,-6.37288 -6.4,-6.37288 h -12.79999 c -3.536,0 -6.4,2.85186 -6.4,6.37288 v 12.84134 c -18.89598,0.50187 -34.13598,16.37033 -34.13598,35.9032 0,15.9083 10.384,30.11981 25.26399,34.5649 l 35.99997,10.75423 c 4.12801,1.23474 7.016,5.40101 7.016,10.14084 0,5.79135 -4.23999,10.50728 -9.44,10.50728 h -22.48798 c -3.64799,0 -7.168,-1.02763 -10.25599,-2.96339 -2.592,-1.61711 -5.888,-1.52152 -8.104,0.58153 l -9.39999,8.92999 c -2.824,2.68458 -2.664,7.33678 0.456,9.67084 7.28,5.44085 16.06399,8.57949 25.09598,9.04152 v 12.97678 c 0,3.52101 2.864,6.37287 6.4,6.37287 h 12.79999 c 3.536,0 6.39999,-2.85186 6.39999,-6.37287 v -12.84135 c 18.89599,-0.50187 34.13599,-16.36237 34.13599,-35.9032 0,-15.9083 -10.38399,-30.11981 -25.26398,-34.5649 z"
     class=""
     id="path2"
     style="fill:#959595;fill-opacity:1;stroke-width:0.79830283" />
</svg>
