<?xml version="1.0" encoding="UTF-8" standalone="no"?>
<svg
   xmlns:dc="http://purl.org/dc/elements/1.1/"
   xmlns:cc="http://creativecommons.org/ns#"
   xmlns:rdf="http://www.w3.org/1999/02/22-rdf-syntax-ns#"
   xmlns:svg="http://www.w3.org/2000/svg"
   xmlns="http://www.w3.org/2000/svg"
   xmlns:sodipodi="http://sodipodi.sourceforge.net/DTD/sodipodi-0.dtd"
   xmlns:inkscape="http://www.inkscape.org/namespaces/inkscape"
   id="svg882"
   version="1.1"
   viewBox="0 0 33.866666 33.866668"
   height="128"
   width="128"
   sodipodi:docname="like.svg"
   inkscape:version="0.92.3 (2405546, 2018-03-11)">
  <sodipodi:namedview
     pagecolor="#ffffff"
     bordercolor="#666666"
     borderopacity="1"
     objecttolerance="10"
     gridtolerance="10"
     guidetolerance="10"
     inkscape:pageopacity="0"
     inkscape:pageshadow="2"
     inkscape:window-width="1920"
     inkscape:window-height="1043"
     id="namedview13"
     showgrid="false"
     inkscape:zoom="1.84375"
     inkscape:cx="-4.5446477"
     inkscape:cy="82.239928"
     inkscape:window-x="1904"
     inkscape:window-y="0"
     inkscape:window-maximized="1"
     inkscape:current-layer="g853" />
  <defs
     id="defs876" />
  <metadata
     id="metadata879">
    <rdf:RDF>
      <cc:Work
         rdf:about="">
        <dc:format>image/svg+xml</dc:format>
        <dc:type
           rdf:resource="http://purl.org/dc/dcmitype/StillImage" />
        <dc:title></dc:title>
      </cc:Work>
    </rdf:RDF>
  </metadata>
  <g
     id="g853"
     transform="translate(0,1.6139588)">
    <path
       style="opacity:1;fill:#ffffff;fill-opacity:1;stroke:none;stroke-width:4.33898306;stroke-linecap:round;stroke-linejoin:round;stroke-miterlimit:4;stroke-dasharray:none;stroke-opacity:1;paint-order:stroke fill markers"
       d="M 6.1274745,122.34915 4.4587421,120.945 V 87.667527 54.390052 L 5.7667128,52.868283 7.0746835,51.346512 18.919255,51.027655 c 8.773652,-0.236189 12.417071,-0.537477 14.052707,-1.162074 9.799693,-3.742191 16.950504,-11.14999 19.774505,-20.48517 0.586565,-1.938983 1.285655,-6.109317 1.553533,-9.267408 0.540009,-6.366324 1.493059,-8.85705 4.484095,-11.7188554 5.840136,-5.5878058 14.929286,-5.1516651 20.167252,0.9677209 3.326221,3.8859455 4.404892,8.3417755 4.38656,18.1202375 -0.01107,5.910123 -0.281627,9.248328 -0.989017,12.203389 -0.535572,2.237289 -1.101624,4.61695 -1.257898,5.288136 l -0.284128,1.220339 15.656445,0.0053 c 15.336481,0.0052 15.711871,0.03154 18.368311,1.289513 3.32568,1.574889 5.82355,4.131532 7.2979,7.469599 2.07552,4.69922 1.97858,6.070323 -1.5854,22.42203 -7.32565,33.610518 -8.1474,37.213078 -8.74173,38.323588 -1.46995,2.74662 -5.01888,5.8706 -7.88918,6.94452 -2.88645,1.07993 -3.999227,1.10476 -49.534895,1.10476 H 7.7962069 Z M 24.255352,87.414309 V 61.109224 H 19.10281 13.950268 l -0.141269,25.762712 c -0.0777,14.169494 -0.0208,26.077014 0.126428,26.461154 0.197898,0.51633 1.578176,0.65775 5.293811,0.54237 l 5.026114,-0.15607 z m 78.022478,24.949151 c 1.11495,-1.16213 2.04799,-4.80555 6.52812,-25.491524 2.87498,-13.274576 5.22383,-24.94759 5.21967,-25.940024 -0.005,-1.264705 -0.48177,-2.27865 -1.59296,-3.389832 l -1.58539,-1.585398 H 91.50959 72.171908 L 70.586514,54.371284 C 68.68067,52.465443 68.527135,50.334068 70.076863,47.296352 71.918419,43.686603 73.9352,35.8239 74.259621,30.989293 74.43516,28.373344 74.278495,24.305861 73.899301,21.634581 73.30716,17.46308 73.03907,16.748965 71.61552,15.551123 c -1.844718,-1.552225 -3.111549,-1.688869 -5.27681,-0.569171 -1.98419,1.026064 -2.610783,2.81224 -2.958091,8.432357 -0.686308,11.105833 -6.467447,22.055821 -15.451032,29.265624 -3.303276,2.651054 -9.695677,6.088464 -12.691184,6.824475 l -1.491525,0.366481 v 26.698262 c 0,14.684049 0.168119,26.866389 0.373598,27.071869 0.205478,0.20547 15.332245,0.30717 33.615039,0.22598 l 33.241435,-0.14761 z"
       id="path826"
       inkscape:connector-curvature="0"
       transform="matrix(0.26458334,0,0,0.26458334,0,-1.6139588)" />
  </g>
</svg>
