<?xml version="1.0" encoding="UTF-8" standalone="no"?>
<svg
   xmlns:dc="http://purl.org/dc/elements/1.1/"
   xmlns:cc="http://creativecommons.org/ns#"
   xmlns:rdf="http://www.w3.org/1999/02/22-rdf-syntax-ns#"
   xmlns:svg="http://www.w3.org/2000/svg"
   xmlns="http://www.w3.org/2000/svg"
   xmlns:sodipodi="http://sodipodi.sourceforge.net/DTD/sodipodi-0.dtd"
   xmlns:inkscape="http://www.inkscape.org/namespaces/inkscape"
   id="svg882"
   version="1.1"
   viewBox="0 0 33.866666 33.866668"
   height="128"
   width="128"
   sodipodi:docname="link.svg"
   inkscape:version="0.92.3 (2405546, 2018-03-11)">
  <sodipodi:namedview
     pagecolor="#ffffff"
     bordercolor="#666666"
     borderopacity="1"
     objecttolerance="10"
     gridtolerance="10"
     guidetolerance="10"
     inkscape:pageopacity="0"
     inkscape:pageshadow="2"
     inkscape:window-width="1920"
     inkscape:window-height="1043"
     id="namedview13"
     showgrid="false"
     inkscape:zoom="1.84375"
     inkscape:cx="-4.5446477"
     inkscape:cy="82.239928"
     inkscape:window-x="1904"
     inkscape:window-y="0"
     inkscape:window-maximized="1"
     inkscape:current-layer="g853" />
  <defs
     id="defs876" />
  <metadata
     id="metadata879">
    <rdf:RDF>
      <cc:Work
         rdf:about="">
        <dc:format>image/svg+xml</dc:format>
        <dc:type
           rdf:resource="http://purl.org/dc/dcmitype/StillImage" />
        <dc:title></dc:title>
      </cc:Work>
    </rdf:RDF>
  </metadata>
  <g
     id="g853"
     transform="translate(0,1.6139588)">
    <g
       id="g915"
       transform="matrix(0.26192141,0,0,0.26168407,22.192419,11.67956)">
      <path
         transform="matrix(0.26458334,0,0,0.26458334,0,-1.6139588)"
         inkscape:connector-curvature="0"
         id="path909"
         d="m -195.87849,287.70877 c -0.23594,-0.23653 -2.30065,-0.58444 -4.58825,-0.77314 -5.56762,-0.45926 -12.17377,-1.57494 -12.81011,-2.16345 -0.28339,-0.26208 -1.30627,-0.47652 -2.27307,-0.47652 -0.96681,0 -1.90867,-0.24406 -2.09303,-0.54237 -0.18437,-0.2983 -0.91657,-0.54237 -1.62712,-0.54237 -0.71055,0 -1.44276,-0.24407 -1.62712,-0.54237 -0.18436,-0.29831 -0.93097,-0.54238 -1.65913,-0.54238 -0.72816,0 -1.32392,-0.24406 -1.32392,-0.54237 0,-0.2983 -0.4423,-0.54237 -0.98287,-0.54237 -0.54058,0 -1.96043,-0.4723 -3.15521,-1.04956 -1.19478,-0.57726 -2.88808,-1.225 -3.76289,-1.43944 -0.8748,-0.21444 -1.71259,-0.53865 -1.86174,-0.72047 -0.14916,-0.18183 -1.49153,-0.93417 -2.98305,-1.67189 -1.49153,-0.73771 -2.8339,-1.46896 -2.98305,-1.62499 -0.14916,-0.15604 -1.24746,-0.7695 -2.44068,-1.36325 -1.19322,-0.59376 -2.29153,-1.22607 -2.44068,-1.40514 -0.14915,-0.17907 -0.83965,-0.62511 -1.53443,-0.9912 -0.69478,-0.36608 -1.67105,-1.00425 -2.16949,-1.41815 -0.49844,-0.4139 -2.98083,-2.26515 -5.51642,-4.11389 -4.62975,-3.37564 -22.84875,-21.16652 -26.86726,-26.23592 -1.18233,-1.49153 -2.33274,-2.79322 -2.55647,-2.89265 -0.22373,-0.0994 -0.40678,-0.47268 -0.40678,-0.82942 0,-0.35675 -0.48813,-1.00046 -1.08474,-1.43047 -0.59661,-0.43002 -1.08475,-0.97726 -1.08475,-1.21611 0,-0.40262 -2.62709,-4.68173 -3.24916,-5.29237 -0.51988,-0.51033 -2.174,-3.52542 -4.46328,-8.13559 -1.25911,-2.53559 -2.47957,-4.69153 -2.71215,-4.79096 -0.23258,-0.0994 -0.42287,-0.75029 -0.42287,-1.44633 0,-0.69604 -0.19336,-1.34689 -0.42969,-1.44633 -0.23633,-0.0994 -1.12062,-2.3774 -1.96509,-5.06214 -0.84446,-2.68475 -1.71559,-5.3695 -1.93583,-5.96611 -1.08195,-2.9309 -1.63549,-5.09003 -1.63549,-6.37937 0,-0.78156 -0.24407,-1.57186 -0.54237,-1.75622 -0.29831,-0.18436 -0.54237,-1.24826 -0.54237,-2.36421 0,-1.11596 -0.30509,-2.33409 -0.67797,-2.70697 -0.51404,-0.51404 -0.67797,-4.86147 -0.67797,-17.97967 0,-13.11819 0.16393,-17.46562 0.67797,-17.97966 0.37288,-0.37288 0.67797,-1.71305 0.67797,-2.97816 0,-1.2651 0.24406,-2.45103 0.54237,-2.6354 0.2983,-0.18436 0.54237,-1.16063 0.54237,-2.16949 0,-1.00885 0.24407,-1.98513 0.54237,-2.16949 0.29831,-0.18436 0.54238,-1.0386 0.54238,-1.8983 0,-0.85971 0.24406,-1.71395 0.54237,-1.89831 0.29831,-0.18436 0.54237,-0.88216 0.54237,-1.55065 0,-0.6685 0.20083,-1.44732 0.4463,-1.73071 0.24546,-0.28339 0.91659,-2.04067 1.49141,-3.90508 0.57482,-1.86441 1.22823,-3.38983 1.45202,-3.38983 0.22378,0 0.40688,-0.36942 0.40688,-0.82092 0,-0.4515 0.21409,-1.24472 0.47575,-1.76271 2.81568,-5.57394 4.68178,-9.28923 5.17015,-10.2935 0.32527,-0.66886 0.77444,-1.21801 0.99817,-1.22034 0.22373,-0.002 0.40678,-0.28016 0.40678,-0.61742 0,-0.33725 0.85424,-1.80223 1.89831,-3.25549 1.04406,-1.45326 1.8983,-2.77808 1.8983,-2.94403 0,-0.28205 2.86172,-4.0929 4.0678,-5.41694 0.2983,-0.32748 1.27457,-1.537955 2.16949,-2.689933 2.21597,-2.852508 89.32838,-89.9506266 93.03928,-93.0240167 1.6284,-1.3486432 4.42513,-3.5452534 6.21496,-4.88135593 1.78983,-1.33610247 3.33559,-2.61232817 3.43502,-2.83605697 0.0994,-0.2237288 0.41625,-0.4067796 0.70402,-0.4067796 0.28778,0 1.85862,-0.8542373 3.49076,-1.8983051 1.63214,-1.0440678 3.18652,-1.8983051 3.45417,-1.8983051 0.26766,0 0.568,-0.1956751 0.66744,-0.4348328 0.16745,-0.4027493 8.22322,-4.4465228 8.8581,-4.4465228 0.31968,0 4.92285,-1.992903 6.36618,-2.756184 0.51798,-0.273929 1.31121,-0.498054 1.76271,-0.498054 0.4515,0 0.82092,-0.244067 0.82092,-0.542373 0,-0.298305 0.44909,-0.542372 0.99799,-0.542372 0.54889,0 2.92855,-0.521883 5.28813,-1.159739 2.35958,-0.637856 5.26642,-1.273024 6.45964,-1.411485 1.19322,-0.13846 2.40136,-0.470816 2.68475,-0.738567 0.28339,-0.267751 1.91644,-0.48682 3.629,-0.48682 1.71257,0 3.2646,-0.244067 3.44896,-0.542372 0.42754,-0.691767 25.88495,-0.737433 26.60339,-0.04772 0.28339,0.272058 1.85763,0.627198 3.498308,0.7892 5.025627,0.496234 7.586061,0.977642 7.899812,1.485306 0.164893,0.266794 0.935127,0.48508 1.711642,0.48508 1.492345,0 6.824646,1.412076 8.415084,2.228444 0.517988,0.265881 1.433242,0.48342 2.033898,0.48342 0.600656,0 1.092106,0.244068 1.092106,0.542373 0,0.298305 0.610169,0.542373 1.355932,0.542373 0.745763,0 1.355932,0.244068 1.355932,0.542373 0,0.298305 0.369416,0.542373 0.82092,0.542373 0.451503,0 1.244724,0.22355 1.762712,0.496777 1.881361,0.992381 4.916387,2.215087 5.498337,2.215087 0.327799,0 0.595997,0.2440681 0.595997,0.5423732 0,0.2983051 0.488136,0.5423729 1.084746,0.5423729 0.59661,0 1.08665,0.1830508 1.088976,0.4067796 0.0022,0.2237288 0.55148,0.6709744 1.220339,0.9938794 1.992288,0.9618142 6.618962,3.6198985 6.911024,3.9704715 0.149153,0.1790325 0.938251,0.6692475 1.753557,1.0893657 0.815306,0.4201188 1.913806,1.1519328 2.441117,1.6262541 0.527317,0.4743214 1.934823,1.58170363 3.127799,2.4608494 1.192982,0.8791463 2.291087,1.7333836 2.440239,1.8983051 0.149153,0.164922 1.728873,1.5201969 3.510487,3.0117223 3.768059,3.1545285 17.16,16.5626778 19.540361,19.5640098 0.894915,1.128375 1.879218,2.313504 2.187341,2.633621 0.308122,0.320117 1.1506,1.436267 1.872173,2.480335 0.721573,1.044068 1.448081,2.020339 1.61446,2.169492 0.166383,0.149152 0.763205,1.247457 1.326275,2.440678 0.56307,1.19322 1.250338,2.622785 1.527257,3.176808 0.276919,0.554028 0.505036,3.604876 0.506929,6.779661 0.0033,5.113784 -0.156318,6.096906 -1.396854,8.617144 -0.770159,1.564638 -1.405354,3.029044 -1.411542,3.254238 -0.0062,0.225187 -1.409578,1.766931 -3.118644,3.426088 -3.12902,3.037646 -6.609459,5.390129 -7.974558,5.390129 -0.405548,0 -0.831229,0.281616 -0.945963,0.625817 -0.291178,0.87354 -13.031723,0.87354 -13.322902,0 -0.114733,-0.344201 -0.798438,-0.625817 -1.519338,-0.625817 -0.720906,0 -1.310736,-0.244068 -1.310736,-0.542373 0,-0.298305 -0.364247,-0.542373 -0.809432,-0.542373 -1.337459,0 -6.308263,-4.484562 -8.953947,-8.07808 -2.898777,-3.93728 -15.013587,-16.334509 -17.952331,-18.370831 -0.715683,-0.495914 -1.908914,-1.459645 -2.651628,-2.14163 -0.742715,-0.68198 -1.546143,-1.239968 -1.785394,-1.239968 -0.239246,0 -0.958948,-0.488135 -1.599333,-1.084745 -0.640391,-0.596611 -1.484421,-1.084746 -1.875629,-1.084746 -0.391208,0 -0.711289,-0.215425 -0.711289,-0.478726 0,-0.263298 -1.40339,-1.133095 -3.118644,-1.932881 -1.715255,-0.799786 -3.542449,-1.682665 -4.060437,-1.961953 -0.517988,-0.279288 -1.311208,-0.507796 -1.762712,-0.507796 -0.451504,0 -0.820919,-0.244068 -0.820919,-0.542373 0,-0.298305 -0.595764,-0.542373 -1.323921,-0.542373 -0.728158,0 -1.474767,-0.244068 -1.65913,-0.542373 -0.184363,-0.298305 -0.916567,-0.542373 -1.627119,-0.542373 -0.710551,0 -1.426088,-0.217101 -1.59008,-0.482447 -0.350118,-0.566503 -1.585242,-0.805137 -10.524068,-2.033318 -6.22533,-0.855351 -7.22447,-0.858207 -14.37288,-0.04109 -9.50917,1.086973 -11.6789,1.460228 -12.05848,2.074406 -0.164,0.265348 -0.87953,0.482449 -1.59008,0.482449 -0.71056,0 -1.44276,0.244068 -1.62712,0.542373 -0.18437,0.298305 -0.80894,0.542373 -1.38795,0.542373 -0.579,0 -1.05273,0.244068 -1.05273,0.542373 0,0.298305 -0.47332,0.542373 -1.05183,0.542373 -1.50106,0 -9.76301,4.320087 -11.41695,5.969806 -0.45065,0.449492 -1.55156,1.17069 -2.44648,1.602658 -1.54843,0.747417 -89.7326,88.565029 -93.42372,93.035399 -0.9695,1.17416 -1.76272,2.32342 -1.76272,2.5539 0,0.23048 -0.40118,0.8876 -0.89151,1.46027 -1.25289,1.46327 -5.07459,8.69875 -5.07459,9.60754 0,0.41441 -0.24407,0.75348 -0.54237,0.75348 -0.29831,0 -0.54237,0.44745 -0.54237,0.99434 0,0.5469 -0.16727,1.16163 -0.37171,1.36606 -0.69863,0.69863 -1.7927,4.41618 -2.14309,7.28197 -0.1925,1.57448 -0.55966,2.99228 -0.81591,3.15065 -0.25625,0.15837 -0.4659,1.72354 -0.4659,3.47816 0,1.75462 -0.24407,3.34106 -0.54238,3.52543 -0.71268,0.44046 -0.71268,11.49174 0,11.9322 0.29831,0.18436 0.54238,1.89284 0.54238,3.79661 0,1.90377 0.20965,3.59098 0.4659,3.74935 0.25625,0.15837 0.62546,1.64546 0.82046,3.30466 0.19501,1.65919 0.56704,3.43554 0.82675,3.94745 0.25971,0.51191 0.77321,1.66295 1.14112,2.55786 0.36792,0.89492 0.88453,2.05092 1.14803,2.56891 0.2635,0.51799 0.47909,1.31121 0.47909,1.76271 0,0.45151 0.24407,0.82092 0.54237,0.82092 0.29831,0 0.54238,0.48814 0.54238,1.08475 0,0.59661 0.24407,1.08475 0.54237,1.08475 0.29831,0 0.54237,0.47373 0.54237,1.05273 0,0.57901 0.23754,1.19954 0.52786,1.37897 0.29032,0.17943 0.92831,1.17011 1.41773,2.2015 0.48943,1.0314 1.10613,1.87527 1.37045,1.87527 0.26431,0 0.48057,0.25516 0.48057,0.56702 0,0.31187 0.61017,1.1772 1.35594,1.92297 0.74576,0.74576 1.35593,1.56279 1.35593,1.81563 0,0.91897 16.6464,17.23398 20.44374,20.03675 6.02247,4.44513 15.29149,9.28475 17.78249,9.28475 0.75185,0 1.36699,0.24407 1.36699,0.54237 0,0.29831 0.7178,0.54237 1.59511,0.54237 0.87731,0 1.74595,0.24407 1.93031,0.54238 0.18437,0.2983 1.16064,0.54237 2.16949,0.54237 1.00886,0 1.96326,0.20868 2.12089,0.46373 0.34687,0.56125 7.92665,1.33696 12.79437,1.30938 5.24804,-0.0297 12.45675,-0.7631 12.78924,-1.30109 0.16045,-0.25961 1.11716,-0.47202 2.12601,-0.47202 1.00886,0 1.98513,-0.24407 2.16949,-0.54237 0.18437,-0.29831 1.05301,-0.54238 1.93032,-0.54238 0.87731,0 1.59511,-0.24406 1.59511,-0.54237 0,-0.2983 0.45832,-0.54237 1.01851,-0.54237 0.92729,0 2.50953,-0.55208 6.7103,-2.34136 0.82034,-0.34942 1.49153,-0.81979 1.49153,-1.04528 0,-0.22548 0.48813,-0.40997 1.08474,-0.40997 0.59661,0 1.08475,-0.24407 1.08475,-0.54237 0,-0.29831 0.23933,-0.54238 0.53184,-0.54238 1.06951,0 6.89493,-4.05347 10.83566,-7.53973 2.22501,-1.9684 15.80005,-15.32866 30.16676,-29.68947 14.366701,-14.3608 26.641152,-26.27556 27.276558,-26.47722 0.635406,-0.20167 1.155282,-0.5943 1.155282,-0.8725 0,-0.2782 0.439322,-0.50582 0.976271,-0.50582 0.536949,0 1.281204,-0.30509 1.653895,-0.67797 0.472071,-0.47231 2.799849,-0.67797 7.673861,-0.67797 4.873453,0 7.202169,0.20571 7.674923,0.67797 0.373272,0.37288 1.071978,0.67797 1.552678,0.67797 0.4807,0 1.39795,0.48813 2.03834,1.08474 0.640385,0.59661 1.357592,1.09127 1.593796,1.09925 0.550302,0.0186 5.039625,4.12116 5.039625,4.60548 0,0.20081 0.478525,1.03714 1.063388,1.8585 3.984629,5.59589 3.897724,18.65501 -0.155651,23.38901 -0.499254,0.58309 -0.913052,1.24042 -0.919544,1.46074 -0.01877,0.63718 -55.201272,55.49947 -59.106832,58.76387 -1.93899,1.62066 -4.8678,3.91384 -6.50848,5.09594 -1.64068,1.18211 -3.06441,2.33653 -3.16384,2.56537 -0.0994,0.22884 -0.42786,0.41608 -0.72983,0.41608 -0.30198,0 -1.19689,0.45008 -1.9887,1.00018 -3.76425,2.61515 -15.96664,8.76253 -17.3934,8.76253 -0.33184,0 -1.08818,0.24407 -1.68074,0.54237 -0.59257,0.29831 -1.56221,0.78645 -2.15477,1.08475 -0.59257,0.29831 -1.56884,0.54237 -2.16949,0.54237 -0.60066,0 -1.09211,0.24407 -1.09211,0.54238 0,0.2983 -0.7178,0.54237 -1.59511,0.54237 -0.87731,0 -1.74595,0.24407 -1.93031,0.54237 -0.18437,0.29831 -0.93428,0.54237 -1.66649,0.54237 -0.73221,0 -1.75509,0.23059 -2.27308,0.51242 -0.9439,0.51357 -5.53744,1.32001 -13.14518,2.30777 -5.38786,0.69953 -22.4362,1.13939 -22.9813,0.59292 z"
         style="opacity:1;fill:#ffffff;fill-opacity:1;stroke:none;stroke-width:4.33898306;stroke-linecap:round;stroke-linejoin:round;stroke-miterlimit:4;stroke-dasharray:none;stroke-opacity:1;paint-order:stroke fill markers" />
      <path
         transform="matrix(0.26458334,0,0,0.26458334,0,-1.6139588)"
         inkscape:connector-curvature="0"
         id="path911"
         d="m -48.151427,137.83226 c -1.640678,-0.2268 -4.264407,-0.43651 -5.830509,-0.46601 -1.566102,-0.0295 -2.847457,-0.2977 -2.847457,-0.59601 0,-0.2983 -1.098306,-0.54237 -2.440678,-0.54237 -1.342373,0 -2.440678,-0.24407 -2.440678,-0.54237 0,-0.29831 -0.735518,-0.54238 -1.634479,-0.54238 -0.898961,0 -2.058283,-0.21586 -2.576271,-0.4797 -1.452101,-0.73963 -9.758379,-3.31691 -10.690012,-3.31691 -0.455426,0 -0.828052,-0.24407 -0.828052,-0.54237 0,-0.29831 -0.369416,-0.54237 -0.820919,-0.54237 -0.451504,0 -1.244724,-0.21772 -1.762712,-0.48382 -0.946804,-0.48639 -10.19329,-5.1133 -12.462985,-6.23644 -0.668859,-0.33098 -1.218011,-0.78483 -1.220339,-1.00856 -0.0023,-0.22373 -0.253532,-0.40678 -0.558233,-0.40678 -0.658453,0 -5.061681,-2.80477 -5.321704,-3.38983 -0.09944,-0.22373 -0.526555,-0.40678 -0.949155,-0.40678 -0.4226,0 -0.77003,-0.18305 -0.77207,-0.40678 -0.002,-0.22373 -0.91729,-1.01663 -2.03389,-1.762 -1.11661,-0.74536 -2.29211,-1.5996 -2.61223,-1.8983 -0.32011,-0.2987 -1.52058,-1.27529 -2.66769,-2.1702 -2.85019,-2.22356 -17.50731,-16.891807 -20.12207,-20.13735 -1.16585,-1.447094 -2.56563,-3.121746 -3.11061,-3.721443 -0.54498,-0.599701 -1.39082,-1.761551 -1.87965,-2.58189 -0.48883,-0.820339 -1.08022,-1.491525 -1.31421,-1.491525 -0.23399,0 -0.42543,-0.366102 -0.42543,-0.81356 0,-0.447457 -0.24407,-0.813559 -0.54237,-0.813559 -0.29831,0 -0.54238,-0.488136 -0.54238,-1.084746 0,-0.59661 -0.18464,-1.084746 -0.41031,-1.084746 -1.4205,0 -2.49522,-12.681263 -1.27616,-15.058207 0.26566,-0.517988 1.05646,-2.162131 1.75733,-3.653657 1.50509,-3.202945 6.44316,-8.261218 9.45706,-9.687251 1.1732,-0.555103 2.55691,-1.226289 3.07489,-1.491526 0.51799,-0.265231 1.78494,-0.48224 2.81545,-0.48224 1.03051,0 2.0245,-0.244068 2.20886,-0.542373 0.18436,-0.298305 1.16064,-0.542373 2.16949,-0.542373 1.00886,0 1.98513,0.244068 2.16949,0.542373 0.18437,0.298305 1.28267,0.542373 2.44068,0.542373 1.15801,0 2.25632,0.244068 2.44068,0.542373 0.18436,0.298305 0.71877,0.542373 1.18757,0.542373 0.46881,0 2.04141,0.854237 3.49467,1.898305 1.45327,1.044068 2.78121,1.898305 2.95098,1.898305 0.42003,0 1.28749,0.954159 3.20508,3.525424 0.889879,1.19322 1.988184,2.649562 2.440678,3.236312 1.71893,2.228935 12.318593,13.122863 14.653226,15.060024 1.342373,1.113828 3.294915,2.760716 4.338983,3.659742 1.044068,0.899027 2.113746,1.635168 2.377058,1.635868 0.263316,5.42e-4 0.873486,0.440531 1.355932,0.977399 0.951891,1.059265 10.75354,6.081833 11.86023,6.077424 0.372882,-0.0016 0.677966,0.241366 0.677966,0.539671 0,0.298306 0.569492,0.542373 1.265535,0.542373 0.696049,0 1.43321,0.167675 1.638145,0.372605 0.66438,0.664385 7.608554,2.275846 9.945666,2.307992 1.250191,0.01719 2.423918,0.275336 2.608282,0.573641 0.414128,0.670074 17.439718,0.742015 17.851688,0.07543 0.15872,-0.256819 1.820583,-0.602391 3.693028,-0.76794 6.107487,-0.539981 15.7948904,-4.328651 22.7059683,-8.880135 1.51758649,-0.999453 2.8923716,-1.817183 3.0550726,-1.817183 0.162701,0 0.6905491,-0.429814 1.1729952,-0.955146 0.4824516,-0.525331 1.807718,-1.647712 2.9450414,-2.494183 2.6220366,-1.951495 82.4104295,-81.7231888 87.1710045,-87.152759 3.565516,-4.066571 7.574691,-9.789901 7.574691,-10.813299 0,-0.302894 0.24407,-0.550715 0.54238,-0.550715 0.2983,0 0.54237,-0.488135 0.54237,-1.084745 0,-0.59661 0.18649,-1.084746 0.41443,-1.084746 0.49591,0 2.29743,-4.018148 2.29743,-5.124252 0,-0.427808 0.24407,-0.928673 0.54238,-1.113036 0.2983,-0.184364 0.54237,-0.930972 0.54237,-1.65913 0,-0.728157 0.24407,-1.323921 0.54237,-1.323921 0.29831,0 0.54237,-0.717798 0.54237,-1.595108 0,-0.87731 0.24407,-1.745952 0.54238,-1.930316 0.2983,-0.184363 0.54237,-1.160634 0.54237,-2.169491 0,-1.008857 0.20868,-1.96326 0.46373,-2.12089 0.5627,-0.347769 1.33094,-7.84864 1.33817,-13.065551 0.007,-5.014514 -0.75755,-12.164339 -1.33911,-12.523764 -0.25454,-0.15731 -0.46279,-1.111447 -0.46279,-2.120304 0,-1.008857 -0.24407,-1.985128 -0.54237,-2.169491 -0.29831,-0.184364 -0.54238,-1.053006 -0.54238,-1.930316 0,-0.87731 -0.24406,-1.595108 -0.54237,-1.595108 -0.2983,0 -0.54237,-0.613483 -0.54237,-1.363292 0,-0.749809 -0.22464,-1.787097 -0.49919,-2.305085 -0.27456,-0.517988 -1.24654,-2.528233 -2.15996,-4.467216 -1.95799,-4.156345 -3.419485,-6.709147 -3.98492,-6.96045 -0.223729,-0.09944 -0.406779,-0.423062 -0.406779,-0.719165 0,-2.032597 -21.266929,-24.320384 -23.206428,-24.320384 -0.230183,0 -0.770337,-0.48814 -1.200352,-1.08475 -0.430015,-0.59661 -1.056233,-1.08475 -1.391604,-1.08475 -0.335371,0 -1.05152,-0.48813 -1.591447,-1.08474 -0.539927,-0.59661 -1.28007,-1.08475 -1.644767,-1.08475 -0.364703,0 -0.966926,-0.3661 -1.338284,-0.81356 -0.371357,-0.44745 -1.133445,-0.81356 -1.693527,-0.81356 -0.560086,0 -1.018337,-0.18448 -1.018337,-0.40997 0,-0.22548 -0.79322,-0.73408 -1.762712,-1.13021 -0.969492,-0.39614 -2.311864,-0.94385 -2.983051,-1.21715 -0.671186,-0.2733 -1.769491,-0.72868 -2.440678,-1.01196 -2.914967,-1.23029 -6.548252,-2.19681 -8.258131,-2.19681 -1.016038,0 -1.998183,-0.24407 -2.182547,-0.54237 -0.184363,-0.29831 -1.736396,-0.54237 -3.44896,-0.54237 -1.712564,0 -3.374714,-0.26097 -3.693668,-0.57992 -0.901678,-0.90168 -18.620084,0.2103 -18.620084,1.16857 0,0.27285 -0.777209,0.49609 -1.727132,0.49609 -1.960119,0 -8.042142,1.55128 -8.82202,2.25014 -0.28339,0.25395 -0.954576,0.46173 -1.4915256,0.46173 -0.5369492,0 -0.9762712,0.24406 -0.9762712,0.54237 0,0.2983 -0.4881356,0.54237 -1.0847458,0.54237 -0.5966102,0 -1.0847457,0.24407 -1.0847457,0.54238 0,0.2983 -0.4881356,0.54237 -1.0847458,0.54237 -0.5966102,0 -1.0847458,0.21761 -1.0847458,0.48357 0,0.26597 -0.5600705,0.62415 -1.2445993,0.79595 -1.4661532,0.36799 -7.8874576,4.43665 -9.0604854,5.74091 -0.4474576,0.49752 -1.4237288,1.32006 -2.1694915,1.82787 -0.7457628,0.5078 -13.8207299,13.368748 -29.0554849,28.579867 -15.234755,15.211118 -27.907064,27.65658 -28.160683,27.65658 -0.253625,0 -0.846449,0.336255 -1.317397,0.747233 -1.876144,1.637239 -7.36071,3.049377 -11.843417,3.049377 -2.42355,0 -4.557299,-0.244068 -4.741662,-0.542373 -0.184364,-0.298305 -0.680233,-0.542373 -1.101928,-0.542373 -0.421701,0 -2.123683,-0.642489 -3.782186,-1.427753 -3.160595,-1.496472 -6.145222,-4.115189 -7.710762,-6.765434 -0.509926,-0.863241 -1.118584,-1.569524 -1.352573,-1.569524 -0.233987,0 -0.425433,-0.488136 -0.425433,-1.084746 0,-0.59661 -0.244067,-1.084746 -0.542372,-1.084746 -0.298306,0 -0.542373,-0.610169 -0.542373,-1.355932 0,-0.745763 -0.244068,-1.355932 -0.542373,-1.355932 -0.33014,0 -0.542373,-2.440678 -0.542373,-6.237288 0,-3.796611 0.212233,-6.237289 0.542373,-6.237289 0.298305,0 0.542373,-0.491449 0.542373,-1.092105 0,-1.139781 0.875236,-2.953085 2.033898,-4.213798 0.372881,-0.405722 0.677966,-0.960554 0.677966,-1.232955 0,-0.629071 56.567018,-57.172769 59.38393,-59.359449 1.15284,-0.89492 2.401572,-1.9322 2.774958,-2.30509 0.373386,-0.37288 0.827075,-0.67796 1.00819,-0.67796 0.18112,0 0.869744,-0.49468 1.530267,-1.09928 1.660562,-1.51997 8.359219,-5.95157 8.996198,-5.95157 0.286628,0 0.6025,-0.18944 0.701939,-0.42097 0.240157,-0.55922 10.29574,-5.55957 11.16384,-5.55146 0.3728815,0.003 0.6779662,-0.23774 0.6779662,-0.53604 0,-0.29831 0.4881356,-0.54238 1.0847458,-0.54238 0.5966101,0 1.0847457,-0.21636 1.0847457,-0.48081 0,-0.26445 0.6711865,-0.60301 1.4915255,-0.75236 0.8203389,-0.14934 2.8304542,-0.78721 4.4669179,-1.41749 1.63646918,-0.63027 3.4059607,-1.14595 3.9322034,-1.14595 0.5262482,0 0.9568109,-0.24406 0.9568109,-0.54237 0,-0.2983 0.8542373,-0.54237 1.8983051,-0.54237 1.0440677,0 1.898305,-0.24407 1.898305,-0.54238 0,-0.2983 0.9618658,-0.54237 2.1374807,-0.54237 1.1756148,0 2.2883258,-0.24407 2.4726888,-0.54237 0.184363,-0.29831 1.370294,-0.54237 2.635401,-0.54237 1.265106,0 2.559945,-0.25975 2.877418,-0.57723 0.862161,-0.86216 23.187699,-1.25716 29.741418,-0.52621 10.02611,1.11825 10.576272,1.20658 10.576272,1.69816 0,0.26951 0.961865,0.49002 2.13748,0.49002 1.175615,0 2.288326,0.24407 2.472689,0.54237 0.184363,0.29831 1.038601,0.54238 1.898305,0.54238 0.859704,0 1.713942,0.24407 1.898305,0.54237 0.184364,0.29831 0.812247,0.54237 1.395303,0.54237 0.583051,0 1.4839,0.22243 2.001888,0.49429 0.517987,0.27186 2.162131,0.90098 3.653657,1.39806 3.907579,1.30225 4.248347,1.45224 11.118644,4.89386 3.430508,1.71849 6.784537,3.3963 7.453396,3.72848 0.66886,0.33218 1.218013,0.78701 1.220339,1.01074 0.0022,0.22373 0.370332,0.40678 0.81779,0.40678 0.447458,0 0.813559,0.18856 0.813559,0.41903 0,0.23047 0.915255,0.89829 2.033899,1.48404 1.118644,0.58575 2.428626,1.49549 2.911078,2.02164 0.482446,0.52616 1.133293,0.95664 1.446323,0.95664 0.31304,0 0.65051,0.18305 0.74995,0.40678 0.0994,0.22373 1.40112,1.37414 2.89265,2.55647 5.01569,3.97593 22.83804,22.21397 26.25487,26.86726 1.86185,2.53559 3.97275,5.34237 4.69088,6.23729 0.71813,0.89491 1.31013,1.9322 1.31556,2.30508 0.005,0.37289 0.19293,0.68028 0.41665,0.68311 0.22373,0.003 0.8886,1.10113 1.47749,2.44067 0.5889,1.33955 1.19907,2.43641 1.35594,2.43748 0.15687,0.001 0.89539,1.34256 1.64115,2.98112 0.74576,1.63855 1.50848,2.980062 1.69492,2.98112 0.18644,0.0011 0.48513,0.732702 0.66377,1.625866 0.17863,0.893168 0.81931,2.647484 1.42373,3.898484 0.60441,1.251004 1.09894,2.598118 1.09894,2.993594 0,0.395472 0.24406,1.203867 0.54237,1.796432 0.29831,0.592564 0.78644,1.562207 1.08475,2.154771 0.2983,0.592564 0.54237,1.55443 0.54237,2.137481 0,0.583056 0.24407,1.210939 0.54237,1.395303 0.29831,0.184363 0.54237,1.037114 0.54237,1.895007 0,0.857888 0.25278,2.224651 0.56173,3.037245 1.60967,4.233752 2.80137,15.363314 2.81118,26.254188 0.009,9.74073 -0.45939,14.920868 -2.03422,22.508475 -0.49532,2.386441 -1.02612,5.134465 -1.17955,6.106723 -0.15345,0.972257 -0.49609,1.901912 -0.76144,2.065909 -0.26534,0.163992 -0.48244,0.879528 -0.48244,1.59008 0,0.710552 -0.24407,1.442755 -0.54237,1.627119 -0.29831,0.184363 -0.54238,0.812246 -0.54238,1.395303 0,0.58305 -0.21559,1.483899 -0.47909,2.001887 -0.51745,1.017199 -1.04045,2.294829 -2.49471,6.0943349 -0.51379,1.3423729 -1.19563,2.9288136 -1.5152,3.5254238 -0.31956,0.5966101 -1.67112,3.159322 -3.00347,5.69491523 -1.33234,2.53559327 -2.87634,5.25801767 -3.43109,6.04982777 -0.55475,0.7918102 -1.00864,1.6867255 -1.00864,1.9887024 0,0.3019715 -0.18724,0.6303946 -0.41608,0.7298332 -0.22885,0.099433 -1.38017,1.5231617 -2.55851,3.1638397 -1.17834,1.640678 -3.24873,4.312071 -4.60087,5.936434 -2.49082,2.992282 -90.036885,90.818012 -93.03471,93.331902 -0.894915,0.75045 -2.60339,2.08887 -3.79661,2.97427 -1.193221,0.8854 -2.56422,2.03963 -3.046671,2.56496 -0.482447,0.52533 -1.036833,0.95514 -1.231968,0.95514 -0.513741,0 -4.908436,2.90821 -5.122489,3.38983 -0.09944,0.22373 -0.421565,0.40678 -0.71584,0.40678 -0.294276,0 -1.555293,0.69128 -2.802257,1.53617 -1.246969,0.84489 -3.425621,2.00421 -4.841453,2.57627 -1.415832,0.57206 -2.575154,1.22316 -2.576271,1.44689 -0.0011,0.22372 -0.49017,0.40678 -1.0867801,0.40678 -0.5966101,0 -1.0847457,0.24406 -1.0847457,0.54237 0,0.2983 -0.4737302,0.54237 -1.0527349,0.54237 -0.5790048,0 -1.2035797,0.24407 -1.3879431,0.54237 -0.1843634,0.29831 -0.8089383,0.54238 -1.387943,0.54238 -0.5790048,0 -1.052735,0.24406 -1.052735,0.54237 0,0.2983 -0.4271186,0.54116 -0.9491525,0.53969 -1.0140637,-0.003 -5.7526834,1.44675 -7.3146739,2.23767 -0.5179878,0.26228 -1.4188366,0.47688 -2.0018875,0.47688 -0.5830562,0 -1.2109396,0.24406 -1.395303,0.54237 -0.1843634,0.2983 -1.1606346,0.54237 -2.1694915,0.54237 -1.0088568,0 -1.9851278,0.24407 -2.1694918,0.54238 -0.184363,0.2983 -1.178348,0.54237 -2.208862,0.54237 -1.030509,0 -2.297459,0.22601 -2.815447,0.50225 -2.49504,1.33057 -23.894931,2.09034 -31.043487,1.10214 z"
         style="opacity:1;fill:#ffffff;fill-opacity:1;stroke:none;stroke-width:4.33898306;stroke-linecap:round;stroke-linejoin:round;stroke-miterlimit:4;stroke-dasharray:none;stroke-opacity:1;paint-order:stroke fill markers" />
    </g>
  </g>
</svg>
