<?xml version="1.0" encoding="utf-8"?>
<!-- Generator: Adobe Illustrator 22.1.0, SVG Export Plug-In . SVG Version: 6.00 Build 0)  -->
<svg version="1.1" id="Layer_1" focusable="false" xmlns="http://www.w3.org/2000/svg" xmlns:xlink="http://www.w3.org/1999/xlink"
	 x="0px" y="0px" viewBox="0 0 384 512" style="enable-background:new 0 0 384 512;" xml:space="preserve">
<style type="text/css">
	.st0{fill:#424242;}
</style>
<path class="st0" d="M298,214.3L285.8,96H328c13.3,0,24-10.7,24-24V24c0-13.3-10.7-24-24-24H56C42.7,0,32,10.7,32,24v48
	c0,13.3,10.7,24,24,24h42.2L86,214.3C37.5,236.8,0,277.3,0,328c0,13.3,10.7,24,24,24h136v104c0,1.2,0.3,2.5,0.8,3.6l24,48
	c2.9,5.9,11.4,5.9,14.3,0l24-48c0.6-1.1,0.8-2.3,0.8-3.6V352h136c13.3,0,24-10.7,24-24C384,276.8,346,236.6,298,214.3z"/>
</svg>
