<?xml version="1.0" encoding="UTF-8" standalone="no"?>
<svg
   xmlns:dc="http://purl.org/dc/elements/1.1/"
   xmlns:cc="http://creativecommons.org/ns#"
   xmlns:rdf="http://www.w3.org/1999/02/22-rdf-syntax-ns#"
   xmlns:svg="http://www.w3.org/2000/svg"
   xmlns="http://www.w3.org/2000/svg"
   xmlns:sodipodi="http://sodipodi.sourceforge.net/DTD/sodipodi-0.dtd"
   xmlns:inkscape="http://www.inkscape.org/namespaces/inkscape"
   height="512"
   width="512"
   aria-hidden="true"
   focusable="false"
   data-prefix="fal"
   data-icon="funnel-dollar"
   role="img"
   viewBox="0 0 512 512"
   class="svg-inline--fa fa-funnel-dollar fa-w-20 fa-7x"
   version="1.1"
   id="svg4"
   sodipodi:docname="pins.svg"
   inkscape:version="0.92.3 (2405546, 2018-03-11)">
  <sodipodi:namedview
     pagecolor="#ffffff"
     bordercolor="#666666"
     borderopacity="1"
     objecttolerance="10"
     gridtolerance="10"
     guidetolerance="10"
     inkscape:pageopacity="0"
     inkscape:pageshadow="2"
     inkscape:window-width="1920"
     inkscape:window-height="1017"
     id="namedview6"
     showgrid="false"
     inkscape:zoom="0.921875"
     inkscape:cx="216.75665"
     inkscape:cy="177.23032"
     inkscape:window-x="-8"
     inkscape:window-y="-8"
     inkscape:window-maximized="1"
     inkscape:current-layer="svg4" />
  <metadata
     id="metadata10">
    <rdf:RDF>
      <cc:Work
         rdf:about="">
        <dc:format>image/svg+xml</dc:format>
        <dc:type
           rdf:resource="http://purl.org/dc/dcmitype/StillImage" />
        <dc:title></dc:title>
      </cc:Work>
    </rdf:RDF>
  </metadata>
  <defs
     id="defs8" />
  <path
     d="M 382.85175,177.47305 477.2277,86.173614 c 13.56799,-13.5105 3.96,-36.71574 -15.272,-36.71574 H 44.403955 c -19.183989,0 -28.863983,23.18134 -15.271991,36.71574 L 201.97986,253.38995 v 144.98296 c 0,7.01813 3.43999,13.59813 9.21599,17.62101 l 59.19997,37.42472 c 3.856,2.68458 8.11999,3.90339 12.288,3.90339 11.19198,0 21.58567,-8.78708 21.69598,-21.52439 l 1.62712,-187.88711 c 76.84483,-70.43748 0,0 76.84483,-70.43748 z m -104.07194,249.57781 -50.99197,-30.47032 -0.208,-0.17525 V 242.61182 L 54.259949,74.949384 H 452.09171 L 331.53178,191.58101 c -50.04011,49.2336 0,0 -50.04011,49.2336 z"
     class=""
     id="path2"
     style="fill:#959595;fill-opacity:1;stroke-width:0.79830283"
     inkscape:connector-curvature="0"
     sodipodi:nodetypes="ccssccsccssccccccccccc" />
</svg>
