<?xml version="1.0" encoding="UTF-8" standalone="no"?>
<svg
   xmlns:dc="http://purl.org/dc/elements/1.1/"
   xmlns:cc="http://creativecommons.org/ns#"
   xmlns:rdf="http://www.w3.org/1999/02/22-rdf-syntax-ns#"
   xmlns:svg="http://www.w3.org/2000/svg"
   xmlns="http://www.w3.org/2000/svg"
   xmlns:sodipodi="http://sodipodi.sourceforge.net/DTD/sodipodi-0.dtd"
   xmlns:inkscape="http://www.inkscape.org/namespaces/inkscape"
   id="svg882"
   version="1.1"
   viewBox="0 0 33.866666 33.866668"
   height="128"
   width="128"
   sodipodi:docname="share.svg"
   inkscape:version="0.92.3 (2405546, 2018-03-11)">
  <sodipodi:namedview
     pagecolor="#ffffff"
     bordercolor="#666666"
     borderopacity="1"
     objecttolerance="10"
     gridtolerance="10"
     guidetolerance="10"
     inkscape:pageopacity="0"
     inkscape:pageshadow="2"
     inkscape:window-width="1920"
     inkscape:window-height="1043"
     id="namedview13"
     showgrid="false"
     inkscape:zoom="1.84375"
     inkscape:cx="-4.5446477"
     inkscape:cy="82.239928"
     inkscape:window-x="1904"
     inkscape:window-y="0"
     inkscape:window-maximized="1"
     inkscape:current-layer="g853" />
  <defs
     id="defs876" />
  <metadata
     id="metadata879">
    <rdf:RDF>
      <cc:Work
         rdf:about="">
        <dc:format>image/svg+xml</dc:format>
        <dc:type
           rdf:resource="http://purl.org/dc/dcmitype/StillImage" />
        <dc:title></dc:title>
      </cc:Work>
    </rdf:RDF>
  </metadata>
  <g
     id="g853"
     transform="translate(0,1.6139588)">
    <path
       style="opacity:1;fill:#ffffff;fill-opacity:1;stroke:none;stroke-width:0.30974671;stroke-linecap:round;stroke-linejoin:round;stroke-miterlimit:4;stroke-dasharray:none;stroke-opacity:1;paint-order:stroke fill markers"
       d="m 25.577074,31.171462 c -0.07254,-0.01702 -0.28277,-0.04286 -0.467177,-0.05742 -0.184406,-0.01456 -0.345356,-0.04191 -0.357666,-0.06079 -0.01231,-0.01888 -0.08291,-0.03432 -0.156891,-0.03432 -0.07398,0 -0.145569,-0.01696 -0.159089,-0.03769 -0.01352,-0.02073 -0.06721,-0.03769 -0.119317,-0.03769 -0.05211,0 -0.105798,-0.01696 -0.119317,-0.03769 -0.01352,-0.02073 -0.05956,-0.03769 -0.102318,-0.03769 -0.04275,0 -0.108815,-0.01498 -0.146799,-0.03329 -0.03798,-0.01831 -0.113806,-0.05109 -0.168493,-0.07284 -0.337329,-0.134146 -0.427957,-0.17085 -0.51704,-0.209397 -0.172663,-0.07471 -0.691876,-0.373899 -0.772679,-0.445241 -0.04265,-0.03765 -0.101012,-0.06846 -0.129699,-0.06846 -0.02869,0 -0.05228,-0.01272 -0.05243,-0.02827 -1.61e-4,-0.01555 -0.06726,-0.07042 -0.149146,-0.12193 -0.173751,-0.109312 -1.16307,-1.040887 -1.16307,-1.095185 0,-0.02026 -0.05315,-0.08954 -0.118107,-0.153963 -0.06496,-0.06442 -0.128807,-0.149071 -0.141883,-0.188118 -0.01308,-0.03905 -0.04047,-0.07099 -0.06087,-0.07099 -0.0204,0 -0.03709,-0.01815 -0.03709,-0.04032 0,-0.02218 -0.05369,-0.114283 -0.119317,-0.204677 -0.06562,-0.09039 -0.119317,-0.182496 -0.119317,-0.204675 0,-0.02218 -0.0179,-0.04032 -0.03977,-0.04032 -0.02188,0 -0.03977,-0.03068 -0.03977,-0.06818 0,-0.0375 -0.02628,-0.101105 -0.05839,-0.141346 -0.03212,-0.04024 -0.05896,-0.102849 -0.05966,-0.139127 -6.93e-4,-0.03628 -0.01916,-0.06596 -0.04104,-0.06596 -0.02188,0 -0.03977,-0.03292 -0.03977,-0.07316 0,-0.04024 -0.0179,-0.08364 -0.03977,-0.09645 -0.02188,-0.01281 -0.03977,-0.05622 -0.03977,-0.09645 0,-0.04024 -0.0179,-0.07316 -0.03977,-0.07316 -0.02188,0 -0.03977,-0.05088 -0.03977,-0.113077 0,-0.06219 -0.01371,-0.113077 -0.03047,-0.113077 -0.01676,0 -0.06332,-0.139931 -0.103478,-0.31096 -0.04016,-0.171029 -0.08909,-0.349923 -0.108736,-0.397543 -0.01965,-0.04762 -0.03572,-0.167198 -0.03572,-0.265729 0,-0.09853 -0.01863,-0.19681 -0.04141,-0.218393 -0.08782,-0.08323 -0.0059,-1.761542 0.101458,-2.077377 0.03426,-0.100822 -0.03653,-0.197684 -0.144464,-0.197684 -0.04107,0 -0.07467,-0.01696 -0.07467,-0.03769 0,-0.02073 -0.0358,-0.03769 -0.07954,-0.03769 -0.04375,0 -0.07954,-0.01696 -0.07954,-0.03769 0,-0.02073 -0.02709,-0.03769 -0.0602,-0.03769 -0.03311,0 -0.09128,-0.01554 -0.12926,-0.03452 -0.03798,-0.01899 -0.140652,-0.06221 -0.228151,-0.09606 -0.0875,-0.03384 -0.190167,-0.07767 -0.228151,-0.0974 -0.03799,-0.01973 -0.105101,-0.03587 -0.149147,-0.03587 -0.04405,0 -0.08008,-0.01282 -0.08008,-0.02849 0,-0.01567 -0.05817,-0.0507 -0.12926,-0.07785 -0.07109,-0.02715 -0.160338,-0.06521 -0.198323,-0.08459 -0.03798,-0.01937 -0.09615,-0.03522 -0.12926,-0.03522 -0.03311,0 -0.0602,-0.01696 -0.0602,-0.03769 0,-0.02073 -0.02624,-0.03769 -0.05831,-0.03769 -0.03207,0 -0.117083,-0.02432 -0.188919,-0.05405 -0.07184,-0.02973 -0.188776,-0.07627 -0.25987,-0.103432 -0.07109,-0.02716 -0.12926,-0.0622 -0.12926,-0.07787 0,-0.01567 -0.02709,-0.02849 -0.0602,-0.02849 -0.03311,0 -0.09128,-0.01551 -0.12926,-0.03446 -0.183804,-0.09172 -0.534786,-0.229383 -0.584843,-0.229383 -0.03092,0 -0.06729,-0.01696 -0.0808,-0.03769 -0.01352,-0.02073 -0.05932,-0.03769 -0.101779,-0.03769 -0.04246,0 -0.0772,-0.01696 -0.0772,-0.03769 0,-0.02073 -0.02515,-0.03769 -0.0559,-0.03769 -0.03074,0 -0.124707,-0.03233 -0.208805,-0.07185 -0.236188,-0.110994 -0.415683,-0.181534 -0.600344,-0.235934 -0.09297,-0.02739 -0.169033,-0.06263 -0.169033,-0.07831 0,-0.01568 -0.03579,-0.02851 -0.07954,-0.02851 -0.04375,0 -0.07954,-0.01696 -0.07954,-0.03769 0,-0.02073 -0.02709,-0.03769 -0.0602,-0.03769 -0.03311,0 -0.09128,-0.01551 -0.12926,-0.03446 -0.105736,-0.05277 -0.526322,-0.229382 -0.546239,-0.229382 -0.0097,0 -0.116587,-0.0424 -0.237547,-0.09423 -0.120959,-0.05183 -0.317887,-0.136198 -0.437615,-0.187491 -0.119729,-0.05129 -0.263079,-0.104057 -0.318555,-0.117252 -0.05548,-0.0132 -0.110701,-0.03907 -0.122723,-0.05751 -0.01202,-0.01843 -0.0566,-0.03352 -0.09905,-0.03352 -0.04246,0 -0.0772,-0.01696 -0.0772,-0.03769 0,-0.02073 -0.02709,-0.03769 -0.0602,-0.03769 -0.03311,0 -0.09128,-0.0151 -0.12926,-0.03357 -0.03798,-0.01846 -0.154807,-0.07237 -0.259607,-0.119795 l -0.190544,-0.08623 -0.245681,0.223449 c -0.135124,0.122897 -0.255201,0.232405 -0.266837,0.243352 -0.06435,0.06053 -0.63423,0.44215 -0.726445,0.48646 -0.05979,0.02873 -0.144052,0.08344 -0.187256,0.121588 -0.0432,0.03815 -0.106148,0.06936 -0.139875,0.06936 -0.03373,0 -0.06132,0.01696 -0.06132,0.03769 0,0.02073 -0.01752,0.03769 -0.03894,0.03769 -0.02142,0 -0.204676,0.07633 -0.407246,0.169615 -0.20257,0.09329 -0.3998198,0.169615 -0.4383315,0.169615 -0.038512,0 -0.070022,0.01696 -0.070022,0.03769 0,0.02073 -0.041164,0.03769 -0.091477,0.03769 -0.050312,0 -0.1084791,0.01457 -0.1292601,0.03238 -0.051099,0.04379 -0.6338837,0.159511 -1.1911816,0.236527 -0.4327621,0.05981 -1.2172318,0.08144 -1.2663133,0.03493 -0.023209,-0.022 -0.1692697,-0.03999 -0.3245812,-0.03999 -0.1553114,0 -0.2993862,-0.01522 -0.3201672,-0.03383 C 6.5159591,22.33504 6.4273657,22.31067 6.3398666,22.29949 6.0785233,22.2661 5.6921182,22.182182 5.6602988,22.151902 c -0.016338,-0.01555 -0.071466,-0.02827 -0.1225078,-0.02827 -0.051042,0 -0.092802,-0.01696 -0.092802,-0.03769 0,-0.02073 -0.031383,-0.03769 -0.06974,-0.03769 -0.038357,0 -0.1949606,-0.05681 -0.3480082,-0.126235 C 4.8741934,21.852587 4.690806,21.77212 4.619713,21.7432 4.548619,21.71428 4.4904523,21.6778 4.4904523,21.66213 c 0,-0.01567 -0.035795,-0.02849 -0.079544,-0.02849 -0.04375,0 -0.079545,-0.01696 -0.079545,-0.03769 0,-0.02073 -0.018652,-0.03769 -0.041451,-0.03769 -0.022799,0 -0.063067,-0.01702 -0.089488,-0.03782 -0.026421,-0.0208 -0.1464736,-0.09987 -0.2667852,-0.175707 -0.1203108,-0.07584 -0.2276963,-0.147963 -0.2386336,-0.160278 -0.010937,-0.01232 -0.087293,-0.07001 -0.1696789,-0.128216 -0.1893072,-0.133741 -1.023492,-0.912504 -1.023492,-0.955493 0,-0.01766 -0.040269,-0.0747 -0.089488,-0.126775 C 2.2875062,19.841809 2.0920979,19.573031 1.9747804,19.372028 1.7117044,18.921294 1.5576785,18.617159 1.4880162,18.410875 1.4460112,18.286491 1.3974222,18.168608 1.3800396,18.148914 c -0.017382,-0.01969 -0.031603,-0.07382 -0.031603,-0.120275 0,-0.04646 -0.017898,-0.09495 -0.039773,-0.107763 -0.021874,-0.01281 -0.039772,-0.07218 -0.039772,-0.131923 0,-0.05974 -0.017898,-0.11911 -0.039772,-0.131923 -0.021875,-0.01281 -0.039773,-0.09014 -0.039773,-0.17184 0,-0.0817 -0.014291,-0.148544 -0.031757,-0.148544 -0.017467,0 -0.05281,-0.261758 -0.078543,-0.581684 -0.048406,-0.601848 -0.00681,-1.587022 0.072887,-1.726454 0.020577,-0.036 0.037412,-0.124045 0.037412,-0.19566 0,-0.07162 0.017898,-0.140693 0.039773,-0.153505 0.021874,-0.01281 0.039772,-0.06979 0.039772,-0.126609 0,-0.05682 0.014558,-0.119427 0.032351,-0.139122 0.017793,-0.01969 0.084909,-0.188461 0.1491465,-0.375038 0.064237,-0.186576 0.1302184,-0.344884 0.1466246,-0.351794 0.016406,-0.0069 0.029829,-0.04507 0.029829,-0.08481 0,-0.03973 0.017897,-0.07224 0.039772,-0.07224 0.021874,0 0.039772,-0.02706 0.039772,-0.06014 0,-0.03308 0.032435,-0.105165 0.072079,-0.160192 0.039643,-0.05503 0.1246563,-0.197537 0.1889186,-0.31669 0.064261,-0.119152 0.1302632,-0.216681 0.1466686,-0.21673 0.016406,-3.8e-5 0.029829,-0.02412 0.029829,-0.05349 0,-0.02937 0.013649,-0.05905 0.03033,-0.06596 0.016681,-0.0069 0.096122,-0.100202 0.1765354,-0.207316 0.080412,-0.107114 0.1786237,-0.232078 0.218247,-0.277699 0.1549498,-0.178402 0.7178859,-0.701819 0.868089,-0.807147 0.087169,-0.06113 0.1874351,-0.141693 0.2228133,-0.179038 0.035378,-0.03735 0.083105,-0.0679 0.1060598,-0.0679 0.022954,0 0.047702,-0.01412 0.054993,-0.03139 0.013755,-0.03257 0.3689195,-0.249953 0.5601273,-0.342831 0.060156,-0.02922 0.1093738,-0.06722 0.1093738,-0.08445 0,-0.01723 0.035795,-0.03132 0.079545,-0.03132 0.04375,0 0.079545,-0.01562 0.079545,-0.0347 0,-0.01909 0.056957,-0.04655 0.1265695,-0.06104 0.069613,-0.01449 0.1864924,-0.05824 0.25973,-0.09723 0.073239,-0.03898 0.1594626,-0.07088 0.1916092,-0.07088 0.032146,0 0.058449,-0.01696 0.058449,-0.03769 0,-0.02073 0.043688,-0.03769 0.097083,-0.03769 0.053396,0 0.1081455,-0.01696 0.1216645,-0.03769 0.01352,-0.02073 0.068268,-0.03769 0.1216644,-0.03769 0.053396,0 0.097084,-0.01309 0.097084,-0.0291 0,-0.02665 0.2111721,-0.07446 0.7357886,-0.166595 0.5945151,-0.1044078 1.7901764,-0.1043663 2.3863412,7.5e-5 0.5218374,0.09143 0.7357887,0.139845 0.7357887,0.166512 0,0.016 0.043688,0.0291 0.097083,0.0291 0.053396,0 0.1081454,0.01696 0.1216644,0.03769 0.01352,0.02073 0.068269,0.03769 0.1216647,0.03769 0.053396,0 0.097084,0.01696 0.097084,0.03769 0,0.02073 0.02709,0.03769 0.0602,0.03769 0.03311,0 0.09128,0.01554 0.129261,0.03452 0.13796,0.06897 0.360519,0.153938 0.403193,0.153938 0.02404,0 0.04371,0.01696 0.04371,0.03769 0,0.02073 0.0358,0.03769 0.07955,0.03769 0.04375,0 0.07954,0.01696 0.07954,0.03769 0,0.02073 0.01734,0.03769 0.03853,0.03769 0.04943,0 0.613399,0.343101 0.630969,0.38386 0.0073,0.01692 0.03048,0.03076 0.05152,0.03076 0.02105,0 0.08205,0.04149 0.135559,0.0922 0.05351,0.05071 0.176953,0.144145 0.274314,0.207628 l 0.177021,0.115424 0.350293,-0.174435 c 0.19266,-0.09594 0.390422,-0.193613 0.439469,-0.217052 0.04905,-0.02344 0.08932,-0.05534 0.08949,-0.07089 1.47e-4,-0.01555 0.0222,-0.02827 0.04895,-0.02827 0.04756,0 0.627943,-0.26145 0.66726,-0.300588 0.02087,-0.02077 0.293917,-0.160445 0.696016,-0.356029 0.131249,-0.06384 0.2446,-0.128795 0.251891,-0.144343 0.0073,-0.01555 0.04607,-0.02827 0.08617,-0.02827 0.0401,0 0.07888,-0.01272 0.08617,-0.02827 0.0073,-0.01555 0.156437,-0.09585 0.331436,-0.178452 0.174998,-0.082599 0.324145,-0.1631668 0.331436,-0.1790377 0.0073,-0.01587 0.03861,-0.028856 0.0696,-0.028856 0.03099,0 0.05634,-0.016962 0.05634,-0.037692 0,-0.020732 0.02471,-0.037692 0.05491,-0.037692 0.05111,0 0.776045,-0.3329158 0.820083,-0.3766119 0.02251,-0.022336 0.341081,-0.1855084 0.696016,-0.3565004 0.131249,-0.06323 0.2446,-0.1276844 0.251892,-0.1432325 0.0073,-0.015549 0.04756,-0.028269 0.08949,-0.028269 0.04193,0 0.07669,-0.012721 0.07724,-0.028269 5.54e-4,-0.015549 0.116665,-0.079154 0.258015,-0.1413458 0.14135,-0.062192 0.257228,-0.1257979 0.257506,-0.141346 2.77e-4,-0.015541 0.0363,-0.028262 0.08005,-0.028262 0.04375,0 0.07954,-0.016962 0.07954,-0.037692 0,-0.020732 0.02685,-0.037692 0.05966,-0.037692 0.03281,0 0.05966,-0.016962 0.05966,-0.037692 0,-0.020732 0.02781,-0.037692 0.06181,-0.037692 0.034,0 0.163752,-0.05378 0.28835,-0.1195104 0.124597,-0.065731 0.405517,-0.2054865 0.624265,-0.3105686 0.465397,-0.2235678 0.513388,-0.2605039 0.483744,-0.3723098 -0.01216,-0.045859 -0.0421,-0.1681863 -0.06654,-0.2718401 -0.02444,-0.1036537 -0.06119,-0.24055 -0.08167,-0.3042143 -0.02048,-0.063664 -0.03724,-0.1832426 -0.03724,-0.26573 0,-0.082488 -0.01865,-0.1676516 -0.04144,-0.1892529 -0.02713,-0.025706 -0.03544,-0.2920149 -0.02408,-0.7708065 0.018,-0.7581539 0.04896,-1.037153 0.164838,-1.4853759 0.03752,-0.1451152 0.07733,-0.3106978 0.08846,-0.367961 0.01114,-0.057263 0.03608,-0.1133892 0.05544,-0.1247242 0.01935,-0.011336 0.03519,-0.062012 0.03519,-0.1126154 0,-0.050603 0.0179,-0.092006 0.03977,-0.092006 0.02188,0 0.03977,-0.032922 0.03977,-0.07316 0,-0.040238 0.0179,-0.083643 0.03977,-0.096455 0.02187,-0.012812 0.03977,-0.056217 0.03977,-0.096455 0,-0.040238 0.0179,-0.07316 0.03977,-0.07316 0.02188,0 0.04034,-0.029683 0.04104,-0.065962 6.93e-4,-0.036279 0.02754,-0.098886 0.05966,-0.1391271 0.03212,-0.040241 0.05839,-0.1038468 0.05839,-0.1413457 0,-0.037499 0.0179,-0.06818 0.03977,-0.06818 0.02188,0 0.03977,-0.026153 0.03977,-0.058114 0,-0.031963 0.03293,-0.091615 0.07318,-0.1325591 0.04025,-0.040944 0.09799,-0.1208024 0.128297,-0.1774618 0.154156,-0.2881433 0.673779,-0.8828627 1.107058,-1.2670502 0.09626,-0.085357 0.21301,-0.19027909 0.259433,-0.2331581 0.04642,-0.0428793 0.236124,-0.17814528 0.421558,-0.30059145 0.185435,-0.12244617 0.343119,-0.23577651 0.350411,-0.25184517 0.0073,-0.0160694 0.04398,-0.0292158 0.08153,-0.0292158 0.03755,0 0.08528,-0.0146143 0.10606,-0.0324785 0.06887,-0.0592022 0.581087,-0.30675132 0.634713,-0.30675132 0.02898,0 0.05865,-0.01343761 0.06594,-0.02986192 0.0073,-0.01642404 0.174336,-0.07760247 0.371209,-0.13595338 0.196873,-0.0583501 0.389029,-0.12123899 0.427013,-0.139753 0.03798,-0.0185148 0.112992,-0.0336621 0.166685,-0.0336621 0.05369,0 0.108685,-0.0169625 0.122204,-0.037692 0.01352,-0.0207316 0.09154,-0.037692 0.173369,-0.037692 0.08183,0 0.16579,-0.0156413 0.186571,-0.0347566 0.07604,-0.0699433 1.555938,-0.14348669 1.622275,-0.0806186 0.02321,0.021995 0.17285,0.0399903 0.332536,0.0399903 0.167044,0 0.290339,0.0160064 0.290339,0.037692 0,0.0207316 0.07948,0.0376928 0.176628,0.0376928 0.09715,0 0.18769,0.0169599 0.201209,0.037692 0.01352,0.020729 0.06851,0.037692 0.122204,0.037692 0.05369,0 0.128701,0.0151475 0.166685,0.0336621 0.03798,0.0185148 0.23014,0.0814029 0.427013,0.139753 0.196874,0.0583509 0.363917,0.11952961 0.371209,0.13595338 0.0073,0.01642404 0.03697,0.02986192 0.06594,0.02986192 0.05363,0 0.565843,0.24754913 0.634713,0.30675132 0.02079,0.0178634 0.07,0.0324785 0.109376,0.0324785 0.03937,0 0.07159,0.0129569 0.07159,0.0287947 0,0.0158357 0.07159,0.070725 0.159089,0.12197417 0.0875,0.0512499 0.159089,0.10613849 0.159089,0.12197496 0,0.0158383 0.01918,0.0287947 0.04261,0.0287947 0.02345,0 0.06756,0.0212018 0.09805,0.0471149 0.120969,0.10280876 0.175255,0.14134602 0.19911,0.14134602 0.05387,0 1.000752,0.91541627 1.092665,1.05635367 0.05373,0.082389 0.111363,0.1497978 0.128073,0.1497978 0.01671,0 0.03038,0.024031 0.03038,0.053397 0,0.029369 0.01461,0.059051 0.03245,0.065962 0.08719,0.033756 0.443332,0.6317588 0.692136,1.162177 0.04376,0.093288 0.0955,0.1990676 0.114983,0.2350649 0.01948,0.035998 0.03542,0.098602 0.03542,0.1391216 0,0.040519 0.0179,0.084154 0.03977,0.096967 0.02187,0.012812 0.03977,0.056447 0.03977,0.096967 0,0.040519 0.01699,0.1031239 0.03776,0.1391215 0.04692,0.081326 0.126848,0.4866719 0.150411,0.7627563 0.0097,0.114019 0.03402,0.2234211 0.05397,0.2431152 0.01995,0.019694 0.03627,0.3343302 0.03627,0.699191 0,0.3648612 -0.01633,0.6794972 -0.03627,0.6991914 -0.01996,0.019694 -0.04424,0.1290959 -0.05397,0.2431149 -0.02356,0.2760843 -0.103494,0.6814306 -0.150411,0.7627565 -0.02076,0.035997 -0.03776,0.108084 -0.03776,0.160192 0,0.052108 -0.0179,0.094742 -0.03977,0.094742 -0.02187,0 -0.03977,0.034153 -0.03977,0.075896 0,0.041743 -0.01649,0.1053484 -0.03665,0.141346 -0.0961,0.1715946 -0.321299,0.6530622 -0.321299,0.6869155 0,0.020981 -0.0179,0.038149 -0.03977,0.038149 -0.02187,0 -0.03977,0.033923 -0.03977,0.075384 0,0.041461 -0.01791,0.075385 -0.03978,0.075385 -0.02187,0 -0.03977,0.014906 -0.03977,0.033126 0,0.045367 -0.26282,0.4555193 -0.359217,0.5605866 -0.04305,0.046927 -0.07828,0.095924 -0.07828,0.1088828 0,0.01296 -0.03224,0.050993 -0.07165,0.084521 -0.03941,0.033528 -0.12442,0.1286481 -0.188919,0.2113784 -0.2085,0.2674364 -0.700462,0.7080134 -1.065169,0.9539184 -0.113026,0.07621 -0.211465,0.151494 -0.218757,0.167302 -0.0073,0.01581 -0.03861,0.02874 -0.0696,0.02874 -0.03099,0 -0.05635,0.01363 -0.05635,0.03029 0,0.04929 -0.82075,0.455789 -1.19317,0.590955 -0.09844,0.03573 -0.210054,0.08018 -0.248038,0.09878 -0.03798,0.0186 -0.104044,0.03382 -0.146799,0.03382 -0.04276,0 -0.0888,0.01696 -0.102318,0.03769 -0.01352,0.02073 -0.07616,0.03769 -0.139203,0.03769 -0.06304,0 -0.125684,0.01696 -0.139204,0.03769 -0.01352,0.02073 -0.08617,0.03769 -0.161436,0.03769 -0.07527,0 -0.136856,0.01468 -0.136856,0.03263 0,0.03707 -0.351023,0.07163 -1.072505,0.105602 -0.51608,0.0243 -1.632015,-0.04865 -1.632015,-0.106685 0,-0.01735 -0.06158,-0.03154 -0.136856,-0.03154 -0.07527,0 -0.147918,-0.01696 -0.161437,-0.03769 -0.01352,-0.02073 -0.07722,-0.03769 -0.141551,-0.03769 -0.06433,0 -0.116969,-0.01696 -0.116969,-0.03769 0,-0.02073 -0.04499,-0.03769 -0.09997,-0.03769 -0.05498,0 -0.131048,-0.01522 -0.169032,-0.03382 -0.03798,-0.0186 -0.149601,-0.06275 -0.248038,-0.0981 -0.09844,-0.03535 -0.210053,-0.0795 -0.248037,-0.0981 -0.03799,-0.0186 -0.09466,-0.03382 -0.125946,-0.03382 -0.03129,0 -0.06285,-0.01272 -0.07014,-0.02827 -0.0073,-0.01555 -0.111694,-0.07765 -0.232005,-0.13801 -0.458563,-0.23005 -0.51704,-0.263191 -0.51704,-0.29302 0,-0.01688 -0.02535,-0.0307 -0.05635,-0.0307 -0.03099,0 -0.06231,-0.01293 -0.0696,-0.02874 -0.0073,-0.01581 -0.108071,-0.09269 -0.223953,-0.17084 l -0.210695,-0.142096 -0.54498,0.271737 c -0.299738,0.149455 -0.652365,0.323862 -0.783614,0.38757 -0.131248,0.06371 -0.244599,0.128554 -0.251891,0.144102 -0.0073,0.01555 -0.04607,0.02827 -0.08617,0.02827 -0.0401,0 -0.07888,0.01272 -0.08617,0.02827 -0.0073,0.01555 -0.124823,0.07915 -0.26118,0.141346 -0.136358,0.06219 -0.248218,0.125798 -0.248578,0.141346 -3.6e-4,0.01555 -0.03645,0.02827 -0.0802,0.02827 -0.04375,0 -0.07954,0.01696 -0.07954,0.03769 0,0.02073 -0.02685,0.03769 -0.05966,0.03769 -0.03281,0 -0.05966,0.01696 -0.05966,0.03769 0,0.02073 -0.0343,0.03769 -0.07623,0.03769 -0.04193,0 -0.0822,0.01272 -0.08949,0.02827 -0.0073,0.01555 -0.156437,0.09514 -0.331436,0.176881 -0.174998,0.08174 -0.327127,0.158064 -0.338065,0.169615 -0.01094,0.01155 -0.216759,0.11625 -0.457382,0.232664 -0.85473,0.413518 -1.034241,0.504832 -1.047338,0.532761 -0.0073,0.01555 -0.04756,0.02827 -0.08949,0.02827 -0.04193,0 -0.07623,0.01696 -0.07623,0.03769 0,0.02073 -0.0343,0.03769 -0.07623,0.03769 -0.04193,0 -0.0822,0.01272 -0.08949,0.02827 -0.0073,0.01555 -0.102745,0.07223 -0.212119,0.125952 -0.422312,0.207442 -0.557288,0.280251 -0.570071,0.307509 -0.0073,0.01555 -0.04607,0.02827 -0.08617,0.02827 -0.0401,0 -0.07888,0.01272 -0.08617,0.02827 -0.0073,0.01555 -0.147489,0.09373 -0.31155,0.173736 -0.16406,0.08001 -0.495166,0.241142 -0.735788,0.358077 -0.240623,0.116935 -0.446445,0.22109 -0.457382,0.231455 -0.01094,0.01037 -0.07358,0.04755 -0.139204,0.08263 -0.110517,0.05908 -0.118317,0.07715 -0.105765,0.245 0.0075,0.09967 0.02982,0.197329 0.04971,0.217023 0.01989,0.01969 0.03617,0.125704 0.03617,0.235577 0,0.109872 0.01789,0.199768 0.03977,0.199768 0.02515,0 0.03977,0.269387 0.03977,0.732775 0,0.447858 -0.01546,0.741832 -0.03977,0.756069 -0.02188,0.01281 -0.03977,0.124063 -0.03977,0.247224 0,0.198801 0.0089,0.22393 0.07954,0.22393 0.04375,0 0.07954,0.01696 0.07954,0.03769 0,0.02073 0.02709,0.03769 0.0602,0.03769 0.03311,0 0.09128,0.01551 0.12926,0.03446 0.143149,0.07143 0.529934,0.229382 0.561717,0.229382 0.0182,0 0.138524,0.04917 0.267377,0.109269 0.401597,0.187307 0.69155,0.305346 0.750058,0.305346 0.03092,0 0.06729,0.01696 0.0808,0.03769 0.01352,0.02073 0.05932,0.03769 0.101778,0.03769 0.04246,0 0.0772,0.01696 0.0772,0.03769 0,0.02073 0.02515,0.03769 0.0559,0.03769 0.03074,0 0.124707,0.03233 0.208805,0.07186 0.0841,0.03952 0.224495,0.09971 0.311994,0.133749 0.0875,0.03404 0.190167,0.07803 0.228151,0.09776 0.03798,0.01973 0.1051,0.03587 0.149147,0.03587 0.04405,0 0.08008,0.01696 0.08008,0.03769 0,0.02073 0.0358,0.03769 0.07955,0.03769 0.04375,0 0.07954,0.01696 0.07954,0.03769 0,0.02073 0.03474,0.03769 0.0772,0.03769 0.04246,0 0.08826,0.01696 0.101778,0.03769 0.01352,0.02073 0.05932,0.03769 0.101778,0.03769 0.04246,0 0.0772,0.01696 0.0772,0.03769 0,0.02073 0.03474,0.03769 0.0772,0.03769 0.04246,0 0.08703,0.01508 0.09905,0.03352 0.01202,0.01843 0.07125,0.04445 0.131608,0.05782 0.06036,0.01337 0.217135,0.07275 0.348384,0.131974 0.555744,0.250756 0.687416,0.304384 0.747348,0.304384 0.03481,0 0.07435,0.01696 0.08787,0.03769 0.01352,0.02073 0.05932,0.03769 0.101778,0.03769 0.04246,0 0.0772,0.01696 0.0772,0.03769 0,0.02073 0.02515,0.03769 0.0559,0.03769 0.03074,0 0.124707,0.03233 0.208805,0.07185 0.0841,0.03952 0.224495,0.100033 0.311994,0.134472 0.305757,0.120345 0.358445,0.141937 0.427013,0.174993 0.03798,0.01831 0.09615,0.0333 0.12926,0.0333 0.03311,0 0.0602,0.01696 0.0602,0.03769 0,0.02073 0.02515,0.03769 0.0559,0.03769 0.03074,0 0.124707,0.03171 0.208804,0.07047 0.574862,0.264958 0.553824,0.267552 1.015945,-0.125235 0.05905,-0.05019 0.21118,-0.153946 0.338065,-0.230565 0.126885,-0.07662 0.239649,-0.149776 0.250586,-0.162569 0.03461,-0.04048 0.247567,-0.150897 0.596586,-0.309322 0.185935,-0.0844 0.369142,-0.169051 0.407126,-0.188117 0.03798,-0.01907 0.09615,-0.03467 0.12926,-0.03467 0.03311,0 0.0602,-0.01504 0.0602,-0.03341 0,-0.01838 0.04922,-0.04268 0.109374,-0.054 0.06016,-0.01132 0.20781,-0.04879 0.328122,-0.08326 0.328437,-0.09411 0.517728,-0.135546 0.715902,-0.156729 0.09844,-0.01052 0.195978,-0.03445 0.216759,-0.05317 0.05294,-0.04769 1.879858,-0.04419 1.911062,0.0036 0.01352,0.02073 0.111956,0.03769 0.218748,0.03769 0.106792,0 0.205229,0.01696 0.218748,0.03769 0.01352,0.02073 0.07746,0.03769 0.14209,0.03769 0.06463,0 0.148588,0.01512 0.186572,0.0336 0.0969,0.04714 0.500119,0.154866 0.579654,0.154866 0.03636,0 0.06611,0.01696 0.06611,0.03769 0,0.02073 0.02708,0.03769 0.0602,0.03769 0.03311,0 0.09128,0.01511 0.129262,0.03357 0.03798,0.01846 0.158549,0.07336 0.267922,0.121991 0.109376,0.04863 0.207813,0.09739 0.218749,0.10835 0.01095,0.01096 0.09575,0.05359 0.188462,0.09474 0.09272,0.04115 0.168781,0.08753 0.169033,0.103082 2.41e-4,0.01555 0.02711,0.02827 0.05966,0.02827 0.03256,0 0.09073,0.02485 0.129259,0.05522 0.03853,0.03037 0.222186,0.161412 0.408123,0.291204 0.185934,0.129791 0.472578,0.363605 0.636983,0.519586 0.25954,0.246244 0.377774,0.373945 0.675504,0.729596 0.03281,0.0392 0.08203,0.0936 0.109376,0.120905 0.02736,0.0273 0.04971,0.0597 0.04971,0.07199 0,0.02506 0.204972,0.330638 0.241448,0.35996 0.01289,0.01037 0.04875,0.07397 0.07968,0.141346 0.03093,0.06737 0.06977,0.1225 0.0863,0.1225 0.01655,0 0.03006,0.02487 0.03006,0.05526 0,0.06815 0.128167,0.33586 0.169033,0.353073 0.01641,0.0069 0.02983,0.03682 0.02983,0.06647 0,0.02965 0.0179,0.0876 0.03977,0.128782 0.02187,0.04118 0.05767,0.108566 0.07955,0.149746 0.02187,0.04118 0.03977,0.109026 0.03977,0.150769 0,0.04174 0.01594,0.0759 0.03542,0.0759 0.01948,0 0.04522,0.05513 0.0572,0.1225 0.01197,0.06737 0.05132,0.24123 0.08743,0.386345 0.03611,0.145115 0.08417,0.374095 0.106788,0.508846 0.05363,0.319514 0.05298,1.532964 -0.0011,1.84692 -0.09524,0.553966 -0.135567,0.736809 -0.170014,0.770806 -0.01996,0.01969 -0.03628,0.07505 -0.03628,0.123011 0,0.04796 -0.0158,0.116656 -0.03513,0.152653 -0.03266,0.06084 -0.07052,0.145661 -0.159613,0.357566 -0.01962,0.04664 -0.08225,0.1828 -0.139204,0.302568 -0.05695,0.119768 -0.103547,0.226962 -0.103547,0.238209 0,0.01125 -0.05369,0.09441 -0.119317,0.184798 -0.06562,0.09039 -0.119315,0.182498 -0.119315,0.204676 0,0.02218 -0.01458,0.04032 -0.03241,0.04032 -0.01782,0 -0.06246,0.05513 -0.09918,0.1225 -0.09243,0.16955 -0.156398,0.262422 -0.226798,0.329276 -0.03306,0.03139 -0.11287,0.124915 -0.177364,0.207838 -0.151121,0.194294 -0.749948,0.761929 -0.95571,0.905927 -0.0875,0.06123 -0.168038,0.120729 -0.178974,0.132211 -0.01095,0.01148 -0.08253,0.06165 -0.15909,0.111476 -0.07656,0.04983 -0.148152,0.0999 -0.159091,0.11126 -0.02984,0.031 -0.162013,0.104885 -0.318179,0.177848 -0.07656,0.03577 -0.148152,0.07576 -0.159089,0.08887 -0.01095,0.01311 -0.07805,0.04781 -0.149144,0.07713 -0.0711,0.02931 -0.129262,0.06612 -0.129262,0.08179 0,0.01567 -0.02708,0.02849 -0.0602,0.02849 -0.03311,0 -0.09127,0.01614 -0.129259,0.03587 -0.03799,0.01973 -0.140653,0.06356 -0.228153,0.0974 -0.0875,0.03384 -0.190166,0.07707 -0.228151,0.09606 -0.03798,0.01899 -0.104044,0.03452 -0.146799,0.03452 -0.04276,0 -0.0888,0.01696 -0.102318,0.03769 -0.01352,0.02073 -0.06721,0.03769 -0.119317,0.03769 -0.05211,0 -0.105798,0.01696 -0.119317,0.03769 -0.01352,0.02073 -0.08259,0.03769 -0.153482,0.03769 -0.0709,0 -0.145904,0.01501 -0.166686,0.03336 -0.102598,0.09059 -1.788663,0.187247 -2.078749,0.119169 z m 1.434806,-2.998038 c 0.08223,-0.01509 0.159354,-0.04252 0.17138,-0.06096 0.01202,-0.01844 0.0745,-0.03353 0.138834,-0.03353 0.06433,0 0.11697,-0.01696 0.11697,-0.03769 0,-0.02073 0.0358,-0.03769 0.07955,-0.03769 0.04375,0 0.07954,-0.01696 0.07954,-0.03769 0,-0.02073 0.02698,-0.03769 0.05995,-0.03769 0.08978,0 0.449809,-0.192901 0.58037,-0.31096 0.06305,-0.05701 0.128389,-0.103654 0.145205,-0.103654 0.105635,0 0.748928,-0.705452 0.85928,-0.942306 0.02414,-0.05183 0.05321,-0.102712 0.0646,-0.113077 0.05334,-0.04857 0.120124,-0.194984 0.120124,-0.263334 0,-0.04174 0.0179,-0.0759 0.03977,-0.0759 0.02187,0 0.03977,-0.03415 0.03977,-0.0759 0,-0.04174 0.01632,-0.105349 0.03626,-0.141346 0.188193,-0.339683 0.188193,-1.600445 0,-1.940128 -0.01995,-0.036 -0.03626,-0.08952 -0.03626,-0.118938 0,-0.06316 -0.165653,-0.375385 -0.208805,-0.39356 -0.01641,-0.0069 -0.02983,-0.03741 -0.02983,-0.06777 0,-0.06715 -0.230459,-0.413919 -0.384787,-0.578979 -0.213727,-0.228588 -0.606887,-0.55981 -0.696482,-0.58676 -0.03967,-0.01193 -0.07213,-0.03549 -0.07213,-0.05236 0,-0.04203 -0.526564,-0.285228 -0.816688,-0.377191 -0.130503,-0.04137 -0.304395,-0.07563 -0.386426,-0.07614 -0.08203,-4.99e-4 -0.149146,-0.01789 -0.149146,-0.03862 0,-0.02333 -0.211337,-0.03769 -0.554466,-0.03769 -0.326742,0 -0.564561,0.01548 -0.579046,0.03769 -0.01352,0.02073 -0.08298,0.03769 -0.154352,0.03769 -0.07137,0 -0.217973,0.0269 -0.325775,0.05978 -0.25575,0.078 -0.852247,0.356557 -0.852247,0.397983 0,0.01773 -0.02237,0.03277 -0.04972,0.03342 -0.05735,0.0014 -0.285856,0.175401 -0.522333,0.397808 -0.415149,0.390449 -0.692164,0.836129 -0.899965,1.447924 -0.103452,0.304578 -0.145721,1.038336 -0.08034,1.394613 0.02473,0.13475 0.055,0.300282 0.06726,0.367849 0.01227,0.06757 0.03822,0.132173 0.05768,0.14357 0.01946,0.0114 0.03538,0.04535 0.03538,0.07545 0,0.06966 0.164848,0.407867 0.206931,0.424543 0.01743,0.0069 0.0317,0.03868 0.0317,0.0706 0,0.131481 0.747762,0.991068 0.862139,0.991068 0.02069,0 0.07517,0.03315 0.121056,0.07366 0.112595,0.09941 0.51396,0.340953 0.566556,0.340953 0.04135,0 0.09011,0.01941 0.269295,0.107192 0.04892,0.02397 0.12393,0.04358 0.166685,0.04358 0.04276,0 0.0888,0.01696 0.102318,0.03769 0.01352,0.02073 0.07274,0.03795 0.131608,0.03827 0.05886,2.89e-4 0.133873,0.01746 0.166685,0.03809 0.06578,0.04136 1.233896,0.02594 1.481889,-0.01956 z M 8.5446538,19.386083 c 0.347046,-0.08153 0.9728429,-0.36744 1.1826489,-0.540323 0.051267,-0.04224 0.1028296,-0.07681 0.1145837,-0.07681 0.045609,0 0.5255066,-0.477678 0.5964106,-0.593652 0.04119,-0.06737 0.08893,-0.1225 0.106091,-0.1225 0.01716,0 0.0312,-0.02544 0.0312,-0.05654 0,-0.0311 0.01426,-0.05654 0.0317,-0.05654 0.04858,0 0.326252,-0.538736 0.326252,-0.632997 0,-0.04574 0.0179,-0.08316 0.03977,-0.08316 0.02188,0 0.03977,-0.05597 0.03977,-0.124384 0,-0.06841 0.01616,-0.140498 0.03592,-0.160192 0.07925,-0.07901 0.15455,-1.057686 0.08635,-1.122316 -0.0235,-0.02227 -0.04272,-0.120904 -0.04272,-0.219188 0,-0.09828 -0.0179,-0.189181 -0.03977,-0.201994 -0.02188,-0.01281 -0.03977,-0.06979 -0.03977,-0.126609 0,-0.05682 -0.01422,-0.119427 -0.0316,-0.139121 -0.01738,-0.01969 -0.0649,-0.132956 -0.105588,-0.251694 -0.04069,-0.118738 -0.107009,-0.24948 -0.147372,-0.290539 -0.04036,-0.04106 -0.07339,-0.08593 -0.07339,-0.09971 0,-0.04088 -0.33925,-0.477669 -0.466029,-0.600015 -0.2515595,-0.242767 -0.7228041,-0.58423 -0.8062781,-0.58423 -0.022097,0 -0.04018,-0.01696 -0.04018,-0.03769 0,-0.02073 -0.025154,-0.03769 -0.0559,-0.03769 -0.030745,0 -0.1336555,-0.03633 -0.228691,-0.08074 -0.3359384,-0.156968 -0.5308937,-0.207304 -1.0045501,-0.259373 -0.5225727,-0.05745 -1.1208511,0.0011 -1.5545829,0.152096 -0.6974171,0.242814 -1.4932574,0.853048 -1.8096418,1.387599 -0.032812,0.05544 -0.06954,0.109277 -0.081617,0.119643 -0.042559,0.03653 -0.1570168,0.294831 -0.1570168,0.35435 0,0.03314 -0.017899,0.06026 -0.039772,0.06026 -0.021876,0 -0.039773,0.0414 -0.039773,0.09201 0,0.0506 -0.017896,0.102489 -0.039772,0.115301 -0.021876,0.01281 -0.039772,0.06979 -0.039772,0.126609 0,0.05682 -0.01595,0.119427 -0.035447,0.139121 -0.1145779,0.115743 -0.1145779,1.388178 0,1.503921 0.019495,0.01969 0.035447,0.07382 0.035447,0.120275 0,0.04646 0.017899,0.09495 0.039772,0.107763 0.021876,0.01281 0.039772,0.05645 0.039772,0.09697 0,0.04052 0.015723,0.103124 0.034943,0.139121 0.019218,0.036 0.085151,0.171459 0.1465162,0.301027 0.061365,0.129567 0.1261801,0.235576 0.1440324,0.235576 0.017854,0 0.032459,0.01773 0.032459,0.0394 0,0.02168 0.044744,0.08181 0.099431,0.133636 0.054687,0.05183 0.099431,0.107108 0.099431,0.122848 0,0.04019 0.4331371,0.457473 0.5927237,0.571033 0.072832,0.05183 0.1974585,0.128153 0.2769471,0.169615 0.079489,0.04146 0.1534731,0.08386 0.1644101,0.09423 0.047505,0.04502 0.2027738,0.113076 0.2579803,0.113076 0.033109,0 0.060198,0.01696 0.060198,0.03769 0,0.02073 0.034739,0.03769 0.077198,0.03769 0.042458,0 0.086984,0.015 0.098944,0.03335 0.011962,0.01834 0.071185,0.04262 0.1316073,0.05395 0.060423,0.01133 0.172503,0.03699 0.2490643,0.05703 0.2443532,0.06394 1.4123728,0.05219 1.7076707,-0.01719 z M 26.743048,9.0066594 c 0.01352,-0.020732 0.09406,-0.037692 0.178975,-0.037692 0.08492,0 0.165456,-0.016962 0.178976,-0.037692 0.01352,-0.020732 0.07722,-0.037692 0.141551,-0.037692 0.06433,0 0.116969,-0.016962 0.116969,-0.037692 0,-0.020732 0.02633,-0.037692 0.05852,-0.037692 0.06715,0 0.504769,-0.1780084 0.536709,-0.218317 0.01168,-0.01474 0.06774,-0.049466 0.124576,-0.077166 0.05684,-0.0277 0.152203,-0.090155 0.211926,-0.1387901 0.05972,-0.048635 0.176442,-0.1408414 0.259375,-0.2049033 0.08293,-0.064062 0.229181,-0.2106687 0.324999,-0.3257933 0.09582,-0.1151246 0.205249,-0.2442092 0.243175,-0.2868549 0.03793,-0.042646 0.09074,-0.1346228 0.117366,-0.2043933 0.02661,-0.069771 0.0627,-0.1268562 0.08018,-0.1268562 0.01749,0 0.03178,-0.033923 0.03178,-0.075385 0,-0.041461 0.0179,-0.075385 0.03977,-0.075385 0.02187,0 0.03977,-0.025672 0.03977,-0.05705 0,-0.031377 0.0158,-0.086502 0.03513,-0.1224997 0.157686,-0.293761 0.223388,-0.6400556 0.223388,-1.1773715 0,-0.4419976 -0.06546,-0.8732664 -0.145605,-0.9592674 -0.01835,-0.019694 -0.03337,-0.066569 -0.03337,-0.1041654 0,-0.037596 -0.01594,-0.09781 -0.03542,-0.1338075 -0.01948,-0.035997 -0.07757,-0.1502575 -0.129095,-0.2539112 -0.224814,-0.4522841 -0.623666,-0.9172886 -0.98945,-1.1535539 -0.108978,-0.07039 -0.198175,-0.1407035 -0.198218,-0.1562516 -4.2e-5,-0.015547 -0.02543,-0.028269 -0.05642,-0.028269 -0.03099,0 -0.06231,-0.01448 -0.0696,-0.032179 -0.02244,-0.054468 -0.621324,-0.307051 -0.728029,-0.307051 -0.05531,0 -0.100562,-0.016962 -0.100562,-0.037693 0,-0.020732 -0.06159,-0.037692 -0.136856,-0.037692 -0.07527,0 -0.147917,-0.016962 -0.161437,-0.037692 -0.03301,-0.050625 -1.359018,-0.050625 -1.392032,0 -0.01352,0.020729 -0.08511,0.037692 -0.15909,0.037692 -0.07398,0 -0.14557,0.016962 -0.159089,0.037692 -0.01352,0.020732 -0.06586,0.037693 -0.116321,0.037693 -0.09692,0 -0.669775,0.2548647 -0.692384,0.3080454 -0.0073,0.017152 -0.03712,0.031184 -0.06629,0.031184 -0.02917,0 -0.05899,0.013708 -0.06629,0.030463 -0.0073,0.016755 -0.09458,0.083007 -0.193966,0.1472265 -0.159994,0.1033787 -0.387803,0.3233815 -0.69041,0.6667535 -0.05305,0.060194 -0.129314,0.1744898 -0.169479,0.2539898 -0.04017,0.0795 -0.08645,0.1447408 -0.102858,0.1449785 -0.01641,2.364e-4 -0.02983,0.034356 -0.02983,0.075817 0,0.041461 -0.0179,0.075385 -0.03977,0.075385 -0.02188,0 -0.03977,0.025672 -0.03977,0.05705 0,0.031377 -0.01659,0.086502 -0.03687,0.1225 -0.209839,0.3725063 -0.298904,1.2697766 -0.182343,1.8369854 0.03834,0.1865766 0.08545,0.3553436 0.10469,0.3750378 0.01924,0.019694 0.03498,0.065822 0.03498,0.1025072 0,0.036685 0.0358,0.1270965 0.07954,0.2009154 0.04375,0.073819 0.07955,0.1591422 0.07955,0.189608 0,0.030466 0.0179,0.055392 0.03977,0.055392 0.02188,0 0.03977,0.017012 0.03977,0.037803 0,0.1362305 0.725031,0.9798869 0.842106,0.9798869 0.01496,0 0.05085,0.022134 0.07976,0.049188 0.108759,0.1017883 0.543329,0.362473 0.644286,0.386486 0.05777,0.013742 0.114874,0.040067 0.126896,0.058501 0.01202,0.018433 0.06555,0.033516 0.118941,0.033516 0.0534,0 0.09708,0.016962 0.09708,0.037692 0,0.020732 0.05264,0.037692 0.116969,0.037692 0.06433,0 0.128031,0.016962 0.141551,0.037692 0.01352,0.020732 0.09406,0.037692 0.178975,0.037692 0.08492,0 0.165457,0.016962 0.178976,0.037692 0.01433,0.021971 0.238265,0.037692 0.536927,0.037692 0.298662,0 0.522598,-0.01572 0.536927,-0.037692 z"
       id="path858"
       inkscape:connector-curvature="0" />
  </g>
</svg>
