<svg
   xmlns:dc="http://purl.org/dc/elements/1.1/"
   xmlns:cc="http://creativecommons.org/ns#"
   xmlns:rdf="http://www.w3.org/1999/02/22-rdf-syntax-ns#"
   xmlns:svg="http://www.w3.org/2000/svg"
   xmlns="http://www.w3.org/2000/svg"
   id="svg4"
   version="1.1"
   class="svg-inline--fa fa-user-lock fa-w-20 fa-7x"
   viewBox="0 0 640 512"
   role="img"
   data-icon="user-lock"
   data-prefix="fal"
   focusable="false"
   aria-hidden="true">
  <metadata
     id="metadata10">
    <rdf:RDF>
      <cc:Work
         rdf:about="">
        <dc:format>image/svg+xml</dc:format>
        <dc:type
           rdf:resource="http://purl.org/dc/dcmitype/StillImage" />
        <dc:title></dc:title>
      </cc:Work>
    </rdf:RDF>
  </metadata>
  <defs
     id="defs8" />
  <path
     style="fill:#959595;fill-opacity:1"
     id="path2"
     class=""
     d="M48 480a16 16 0 0 1-16-16v-41.6A102.47 102.47 0 0 1 134.4 320c19.6 0 39.1 16 89.6 16s70-16 89.6-16c2.7 0 5.3.6 7.9.8a79.45 79.45 0 0 1 13.1-30.7 132.34 132.34 0 0 0-21.1-2.1c-28.7 0-42.5 16-89.6 16s-60.8-16-89.6-16C60.2 288 0 348.2 0 422.4V464a48 48 0 0 0 48 48h288.4a78.34 78.34 0 0 1-14.8-32zm176-224A128 128 0 1 0 96 128a128 128 0 0 0 128 128zm0-224a96 96 0 1 1-96 96 96.15 96.15 0 0 1 96-96zm272 336a32 32 0 1 0 32 32 32 32 0 0 0-32-32zm96-80h-16v-48a80 80 0 0 0-160 0v48h-16a48 48 0 0 0-48 48v128a48 48 0 0 0 48 48h192a48 48 0 0 0 48-48V336a48 48 0 0 0-48-48zm-144-48a48 48 0 0 1 96 0v48h-96zm160 224a16 16 0 0 1-16 16H400a16 16 0 0 1-16-16V336a16 16 0 0 1 16-16h192a16 16 0 0 1 16 16z"
     fill="currentColor" />
</svg>
