<?xml version="1.0" encoding="utf-8"?>
<!-- Generator: Adobe Illustrator 21.1.0, SVG Export Plug-In . SVG Version: 6.00 Build 0)  -->
<svg version="1.1" id="heart" xmlns="http://www.w3.org/2000/svg" xmlns:xlink="http://www.w3.org/1999/xlink" x="0px" y="0px"
	 viewBox="0 0 128 128" style="enable-background:new 0 0 128 128;" xml:space="preserve">
<style type="text/css">
	.st0{fill:#E2574C;}
</style>
<g>
	<path class="st0" d="M63.8,1.9C30.2,1.9,3,29.1,3,62.6c0,33.6,27.2,60.8,60.8,60.8c33.6,0,60.8-27.2,60.8-60.8
		C124.5,29.1,97.3,1.9,63.8,1.9z M63.8,112c-27.3,0-49.4-22.1-49.4-49.4s22.1-49.4,49.4-49.4s49.4,22.1,49.4,49.4S91,112,63.8,112z
		 M63.8,28.5c-4.4,0-7.6,2.3-7.6,5.9v33.6c0,3.7,3.3,5.9,7.6,5.9c4.2,0,7.6-2.4,7.6-5.9V34.4C71.4,30.9,68,28.5,63.8,28.5z
		 M63.8,81.6c-4.2,0-7.6,3.4-7.6,7.6c0,4.2,3.4,7.6,7.6,7.6s7.6-3.4,7.6-7.6C71.3,85,67.9,81.6,63.8,81.6z"/>
</g>
</svg>
