<?xml version="1.0" encoding="UTF-8" standalone="no"?>
<svg
   xmlns:dc="http://purl.org/dc/elements/1.1/"
   xmlns:cc="http://creativecommons.org/ns#"
   xmlns:rdf="http://www.w3.org/1999/02/22-rdf-syntax-ns#"
   xmlns:svg="http://www.w3.org/2000/svg"
   xmlns="http://www.w3.org/2000/svg"
   id="svg8"
   version="1.1"
   viewBox="0 0 105.83333 105.83334"
   height="400"
   width="400">
  <defs
     id="defs2" />
  <metadata
     id="metadata5">
    <rdf:RDF>
      <cc:Work
         rdf:about="">
        <dc:format>image/svg+xml</dc:format>
        <dc:type
           rdf:resource="http://purl.org/dc/dcmitype/StillImage" />
        <dc:title></dc:title>
      </cc:Work>
    </rdf:RDF>
  </metadata>
  <g
     transform="translate(0,-191.16665)"
     id="layer1">
    <g
       transform="matrix(0.18986796,0,0,0.19394624,27.546037,214.04942)"
       id="g838">
      <path
         style="opacity:1;fill:#e0e0e0;fill-opacity:1;stroke:#e0e0e0;stroke-width:39.39136164;stroke-linecap:round;stroke-linejoin:round;stroke-miterlimit:4;stroke-dasharray:none;stroke-opacity:1"
         d="M 483.42857,194.8638 C 438.45532,188.65129 405.94298,178.48246 375.39662,161.07486 311.73559,124.79606 268.46552,69.689457 247.34917,-2 c -5.96356,-20.246143 -6.70894,-28.405543 -6.52511,-71.428571 0.18891,-44.211129 0.88226,-50.699359 7.72358,-72.275449 4.13382,-13.03721 12.56299,-33.78752 18.73148,-46.11179 61.02173,-121.91769 205.11267,-178.32739 332.77291,-130.2762 80.65737,30.35935 140.61783,97.36918 164.98137,184.37772 9.56343,34.15351 9.73554,95.939119 0.36397,130.65789 -26.94814,99.834371 -108.54234,178.19489 -204.6372,196.52714 -22.5404,4.30009 -64.2078,7.20595 -77.3316,5.39306 z m 75.71429,-54.04271 c 10.21428,-2.42235 30.14285,-10.13226 44.28571,-17.1332 54.87697,-27.164919 93.86783,-73.89869 113.3096,-135.810947 5.63326,-17.939029 6.6904,-27.400172 6.6904,-59.876943 0,-32.45193 -1.06208,-41.97115 -6.69437,-60 -12.38531,-39.64506 -27.4236,-64.36026 -57.4682,-94.44811 -23.27817,-23.31168 -31.23583,-29.25582 -54.40886,-40.64182 -36.08431,-17.72993 -59.1508,-23.0722 -100,-23.16034 -25.4631,-0.0549 -37.86178,1.35159 -55.09644,6.25026 -75.10058,21.34609 -128.30702,72.43542 -153.83547,147.7143 -5.98647,17.65302 -6.78237,25.19687 -6.78237,64.28571 0,39.210057 0.78259,46.577943 6.82821,64.2857143 24.25022,71.0293997 72.36871,120.6188557 138.6216,142.8592257 11.66062,3.91435 28.0618,8.34552 36.44708,9.84706 19.78069,3.54211 64.50805,1.42466 88.10311,-4.17091 z"
         id="path826"
         transform="matrix(0.26458333,0,0,0.26458333,0,191.16665)" />
      <path
         style="opacity:1;fill:#e0e0e0;fill-opacity:1;stroke:#e0e0e0;stroke-width:39.39136164;stroke-linecap:round;stroke-linejoin:round;stroke-miterlimit:4;stroke-dasharray:none;stroke-opacity:1"
         d="M 469.14286,74.0794 C 422.01803,62.466657 386.24603,31.030406 364.68881,-17.714286 358.44663,-31.828946 357.7392,-37.354929 357.7392,-72 c 0,-43.16559 3.04493,-53.78687 24.68747,-86.1145 25.69306,-38.37791 76.87759,-65.40752 123.6018,-65.27184 61.01081,0.17717 120.44346,42.56975 142.29624,101.49815 5.16278,13.92198 6.31572,23.029221 6.31572,49.88819 0,26.858969 -1.15294,35.966214 -6.31572,49.888189 -17.76772,47.9126 -60.14764,85.519868 -109.47646,97.147697 -23.41614,5.519657 -44.60488,5.228914 -69.70539,-0.956486 z m 80.63535,-50.090251 c 20.77205,-9.495858 41.93195,-30.3865604 52.36969,-51.703435 6.07069,-12.398103 6.99496,-18.2497 6.99496,-44.285714 0,-27.507769 -0.69521,-31.37205 -8.36856,-46.51596 -10.32406,-20.37529 -30.85682,-39.99784 -52.43697,-50.11245 -14.13561,-6.62536 -19.99528,-7.65569 -43.48019,-7.64533 -23.93029,0.0106 -29.07606,0.95975 -43.47649,8.01972 -45.98861,22.54643 -70.51958,73.788157 -58.25083,121.677769 8.86323,34.596565 33.98606,62.218882 68.00703,74.773102 22.49781,8.302009 55.09135,6.558095 78.64136,-4.207702 z"
         id="path828"
         transform="matrix(0.26458333,0,0,0.26458333,0,191.16665)" />
      <path
         style="opacity:1;fill:#e0e0e0;fill-opacity:1;stroke:#000000;stroke-width:10.5714283;stroke-linecap:round;stroke-linejoin:round;stroke-miterlimit:4;stroke-dasharray:none;stroke-opacity:0"
         d="M 34.329634,-240.59137 C 23.336627,-245.02055 22,-252.23506 22,-307.14114 c 0,-48.94809 0.417372,-53.19027 5.921657,-60.18784 l 5.921658,-7.52816 h 89.922495 89.9225 l 7.01299,7.01298 c 6.92636,6.92636 7.01299,7.64819 7.01299,58.43699 0,54.81555 -1.62818,63.19961 -13.30665,68.52068 -8.44173,3.84631 -170.604529,4.11207 -180.078006,0.29512 z"
         id="path830"
         transform="matrix(0.26458333,0,0,0.26458333,0,191.16665)" />
      <path
         transform="matrix(0.26458333,0,0,0.26458333,0,191.16665)"
         style="opacity:1;fill:#e0e0e0;fill-opacity:1;stroke:#e0e0e0;stroke-width:39.39136164;stroke-linecap:round;stroke-linejoin:round;stroke-miterlimit:4;stroke-dasharray:none;stroke-opacity:1"
         d="M -12.54536,317.86309 C -40.527248,305.01622 -54.841654,285.80096 -68,260.85714 L -68.773789,-63.207 c -0.674913,-282.6545 -0.22044,-325.96759 3.556624,-338.96023 13.131508,-29.75064 33.163835,-45.81696 60.0743079,-58.34838 l 136.3445571,-0.0279 136.34456,-0.0279 24.26711,-48.03825 c 26.30329,-52.06901 39.90426,-69.22803 64.47214,-81.33827 12.73812,-6.27899 14.12912,-6.33776 150.0002,-6.33776 h 137.14286 c 17.25096,7.53818 33.57031,19.14238 45.91072,31.28862 14.13734,14.09128 21.20431,24.93319 38.26925,58.71138 11.51149,22.78571 22.35166,42.40118 24.08929,43.58992 16.14652,2.75336 28.96821,1.27878 46.01646,0.69577 l 1.48565,-20 c 2.35529,-31.70731 13.16155,-46.06782 40.85443,-54.29172 16.43877,-4.88179 55.5022,-5.64083 70.85314,-1.37676 12.97623,3.60444 27.39032,13.30866 34.97472,23.54658 8.70116,18.40664 7.4985,31.31002 8.97491,52.1219 l 34.28572,1.48855 c 27.67274,1.20144 36.49004,2.67022 45.71424,7.61504 15.3332,8.2196 31.2664,25.20972 38.3524,40.89641 5.7299,12.68452 5.8087,17.27865 5.8706,342.174 0.062,323.81277 -0.033,329.52074 -5.6717,341.51629 -15.1166,27.31159 -28.3413,35.599 -52.837,49.16685 L 510.57143,321.3884 C 77.025397,321.84003 -1.3949057,321.31154 -12.54536,317.86309 Z M 1008.5203,272.65394 c 9.841,-4.58655 16.3232,-11.64358 23.4797,-19.39908 l 0.7299,-319.056003 c 0.6849,-299.390987 0.4208,-319.672347 -4.2857,-329.055997 -10.1462,-20.22912 -8.1602,-19.99059 -166.48209,-19.99556 l -141.46645,-0.004 -24.66726,-49.28572 c -28.72009,-57.38342 -38.138,-71.28106 -53.67629,-79.20811 -10.88974,-5.55554 -16.4352,-5.79189 -135.89445,-5.79189 -135.76146,0 -133.6234,-0.24028 -147.48875,16.57541 -3.72291,4.51507 -18.95614,32.84697 -33.85165,62.95976 l -27.08277,54.75055 H 151.76834 5.7021886 c -8.0667444,5.68912 -18.2361676,11.32644 -22.9041576,20.08575 -2.792057,5.51784 -3.580122,76.41784 -3.613054,325.056133 -0.0472,356.263827 -1.623014,330.525797 20.861643,340.734167 11.593011,5.2634 26.836231,5.42892 505.61658,5.48978 411.9176,0.0523 495.1856,-0.58595 502.8571,-3.85475 z"
         id="path832" />
      <rect
         y="-80.135368"
         x="-106.64417"
         height="469.98438"
         width="480.53333"
         id="rect840"
         style="opacity:1;fill:none;fill-opacity:1;stroke:#e0e0e0;stroke-width:21.13109589;stroke-linecap:round;stroke-linejoin:round;stroke-miterlimit:4;stroke-dasharray:none;stroke-opacity:1" />
      <path
         transform="matrix(1.3935123,0,0,1.3642097,-145.07997,-117.98512)"
         id="path842"
         d="M 34.925232,200.08198 V 35.932195 H 199.5801 364.23496 V 200.08198 364.23177 H 199.5801 34.925232 Z m 268.469698,89.91714 c 2.07153,-1.3815 4.90283,-4.18894 6.29179,-6.23877 l 2.52539,-3.72695 0.30433,-64.72445 c 0.2076,-44.15006 -0.0418,-65.91411 -0.78452,-68.46699 -1.2078,-4.15135 -5.14456,-9.31509 -8.4676,-11.10672 -1.19015,-0.64167 -4.87272,-1.65441 -8.18349,-2.25054 -5.70756,-1.02769 -6.05527,-1.25827 -6.70762,-4.4479 -1.39633,-6.82729 -8.32636,-11.27098 -17.57736,-11.27098 -9.73763,0 -16.91905,4.51419 -18.22088,11.45349 -0.96765,5.15804 -2.98933,4.62617 -6.14165,-1.61577 -4.53893,-8.98757 -8.39647,-13.82185 -13.99588,-17.53965 l -5.3759,-3.5694 -27.12524,0.32673 c -29.97856,0.3611 -30.49756,0.46323 -36.37595,7.15835 -1.64154,1.86961 -4.77735,6.89113 -6.96848,11.15895 l -3.98387,7.75965 -24.53644,0.004 c -22.28963,0.004 -24.88839,0.18388 -28.379911,1.96512 -4.260175,2.17338 -9.842709,8.0318 -11.295999,11.85425 -0.547565,1.44019 -0.942486,29.56203 -0.942486,67.11308 0,53.76123 0.240398,65.09304 1.429044,67.36192 1.559979,2.97769 6.983314,8.37571 10.18771,10.14016 1.431042,0.78798 30.974172,1.12141 101.289452,1.14317 l 99.26914,0.0307 3.76642,-2.51182 z"
         style="opacity:1;fill:#e0e0e0;fill-opacity:0.36180905;stroke:none;stroke-width:15.27159786;stroke-linecap:round;stroke-linejoin:round;stroke-miterlimit:4;stroke-dasharray:none;stroke-opacity:1" />
    </g>
  </g>
</svg>
