<?xml version="1.0" encoding="UTF-8" standalone="no"?>
<!-- Created with Inkscape (http://www.inkscape.org/) -->

<svg
   xmlns:dc="http://purl.org/dc/elements/1.1/"
   xmlns:cc="http://creativecommons.org/ns#"
   xmlns:rdf="http://www.w3.org/1999/02/22-rdf-syntax-ns#"
   xmlns:svg="http://www.w3.org/2000/svg"
   xmlns="http://www.w3.org/2000/svg"
   xmlns:sodipodi="http://sodipodi.sourceforge.net/DTD/sodipodi-0.dtd"
   xmlns:inkscape="http://www.inkscape.org/namespaces/inkscape"
   version="1.1"
   id="svg2"
   width="512"
   height="512"
   viewBox="0 0 512 512"
   sodipodi:docname="favicon.svg"
   inkscape:version="0.92.3 (2405546, 2018-03-11)"
   inkscape:export-filename="D:\http\shimada\web\src\img\favicon\favicon.png"
   inkscape:export-xdpi="90"
   inkscape:export-ydpi="90">
  <metadata
     id="metadata8">
    <rdf:RDF>
      <cc:Work
         rdf:about="">
        <dc:format>image/svg+xml</dc:format>
        <dc:type
           rdf:resource="http://purl.org/dc/dcmitype/StillImage" />
        <dc:title />
      </cc:Work>
    </rdf:RDF>
  </metadata>
  <defs
     id="defs6" />
  <sodipodi:namedview
     pagecolor="#ffffff"
     bordercolor="transparent"
     borderopacity="1"
     objecttolerance="10"
     gridtolerance="10"
     guidetolerance="10"
     inkscape:pageopacity="0"
     inkscape:pageshadow="2"
     inkscape:window-width="1920"
     inkscape:window-height="1017"
     id="namedview4"
     showgrid="false"
     inkscape:zoom="1.3728324"
     inkscape:cx="-70.507479"
     inkscape:cy="278.81876"
     inkscape:window-x="-8"
     inkscape:window-y="-8"
     inkscape:window-maximized="1"
     inkscape:current-layer="svg2" />
  <circle
     style="opacity:1;fill:#ffffff;fill-opacity:1;stroke:none;stroke-width:67.58351898;stroke-linecap:round;stroke-linejoin:round;stroke-miterlimit:4;stroke-dasharray:none;stroke-opacity:1"
     id="path840"
     cx="256"
     cy="256"
     r="256" />
  <g
     id="g836"
     transform="matrix(2.9915823,0,0,2.9970941,22.776043,-1162.8339)">
    <path
       sodipodi:nodetypes="ccccccccssscssssssccsssscc"
       inkscape:connector-curvature="0"
       id="path4522"
       d="m 2.4493789,508.04699 v -2.93397 h 5.7843789 c 8.9679372,-0.37772 9.4251112,-0.64342 17.7580762,-2.88431 3.339438,-1.28148 4.731657,-2.91537 6.573564,-4.69164 4.022179,-3.90911 4.855002,-7.04239 3.096065,-11.6481 -6.479924,-8.97924 -15.878149,-10.44124 -25.522387,-13.55489 -5.2758053,-2.78407 -6.114404,-4.16846 -8.6002234,-9.10527 -1.32132076,-5.62912 -1.0618663,-8.0902 1.8358487,-13.92687 1.6655276,-3.35476 6.5010195,-6.92635 11.1096387,-8.20581 3.273343,-0.90875 11.497551,-1.03939 21.360502,-0.33929 l 6.667693,0.47328 v 3.16882 c 0,1.74285 -0.08195,3.16837 -0.182105,3.16782 -0.100158,-5.4e-4 -2.968316,-0.49178 -6.373684,-1.09163 -13.428665,-2.36545 -22.334004,-0.53226 -26.4418609,5.44313 -1.6196551,2.35599 -1.6723214,9.27388 -0.087825,11.53607 1.3776309,1.96684 5.1983569,3.82317 13.0538969,6.34234 3.205052,1.02782 7.239136,2.52134 8.964629,3.31894 4.973402,2.0608 7.71106,4.41305 10.424815,9.56653 0.995002,2.79008 0.98091,2.59445 1.184646,5.44193 0.315082,4.40369 0.12106,5.6687 -1.308449,8.53102 -3.706883,7.42231 -12.930948,12.32134 -24.858322,13.20258 -2.933499,0.21674 -7.3823185,0.55815 -9.8862657,0.75868 l -4.5526314,0.36461 z"
       style="fill:#000000;fill-opacity:1;stroke:#000000;stroke-width:0.29136842;stroke-miterlimit:4;stroke-dasharray:none;stroke-opacity:1" />
    <path
       inkscape:connector-curvature="0"
       id="path4524"
       d="m 53.43885,475.24776 v -34.96421 h 3.642105 3.642106 v 15.94733 c 0,13.86992 0.150094,16.00493 1.152206,16.38947 1.501841,0.57631 25.330587,0.57631 26.832427,0 1.002113,-0.38454 1.152207,-2.51955 1.152207,-16.38947 v -15.94733 h 3.277895 3.277895 v 34.96421 34.96421 h -3.263689 -3.263689 l -0.196311,-15.84316 -0.196311,-15.84316 h -14.20421 -14.20421 l -0.196311,15.84316 -0.196312,15.84316 h -3.627898 -3.6279 z"
       style="fill:#000000;fill-opacity:1;stroke:#000000;stroke-width:0.29136842;stroke-miterlimit:4;stroke-dasharray:none;stroke-opacity:1" />
    <path
       inkscape:connector-curvature="0"
       id="path4536"
       d="m 102.52709,444.42137 c -1.12061,-2.09389 -0.32788,-3.73733 1.66615,-3.45417 2.75526,0.39125 2.45044,4.8971 -0.33532,4.95677 -0.28638,0.006 -0.88525,-0.67003 -1.33083,-1.5026 z"
       style="fill:#ff3e00;fill-opacity:1;stroke:#ff3e00;stroke-width:0.29136842;stroke-miterlimit:4;stroke-dasharray:none;stroke-opacity:1" />
    <path
       inkscape:connector-curvature="0"
       id="path4538"
       d="m 104.41569,506.21197 c -0.15477,-0.50079 -0.60156,-9.43305 -0.99287,-19.84948 -0.91396,-24.32942 0.0994,-34.09367 3.11464,-30.01131 0.77103,1.04389 0.92041,6.23486 0.73365,25.49473 -0.12898,13.30117 -0.25892,24.42979 -0.28877,24.73027 -0.091,0.91646 -2.26625,0.60779 -2.56665,-0.36421 z"
       style="fill:#ff3e00;fill-opacity:1;stroke:#ff3e00;stroke-width:0.29136842;stroke-miterlimit:4;stroke-dasharray:none;stroke-opacity:1" />
    <path
       inkscape:connector-curvature="0"
       id="path4540"
       d="m 116.06876,486.41297 c -0.29166,-10.58898 -0.82085,-20.50461 -1.176,-22.03474 -0.35514,-1.53013 -0.65353,-4.66684 -0.66309,-6.97047 -0.0165,-3.96614 0.0775,-4.18842 1.77067,-4.18842 2.22365,0 2.3587,0.7454 2.93993,16.22661 0.2373,6.32052 0.61609,11.97301 0.84175,12.56107 0.78941,2.05717 1.57117,0.30538 2.76659,-6.19943 0.66277,-3.60641 1.68495,-7.7057 2.2715,-9.10952 0.95868,-2.29445 1.35149,-2.55242 3.8866,-2.55242 3.28705,0 4.79899,1.71917 5.51176,6.26719 1.04737,6.68304 2.08083,11.21492 2.55748,11.21492 0.5922,0 2.19085,-3.29216 2.22737,-4.58691 0.0136,-0.48194 0.65805,-2.18741 1.43213,-3.78993 0.77407,-1.60253 1.44495,-3.40537 1.49084,-4.00632 0.12542,-1.64232 3.08348,-6.69295 4.39374,-7.50191 0.78585,-0.48519 1.81826,-0.38957 3.26127,0.30205 2.95907,1.41824 4.03056,6.21946 4.69548,21.03986 0.40832,9.10104 0.84027,12.59371 1.77919,14.3864 1.54355,2.94713 1.23633,4.84779 -0.8314,5.14349 -3.12459,0.44684 -4.11001,-2.62349 -4.72304,-14.71587 -0.62379,-12.3044 -1.60055,-17.19718 -3.43313,-17.19718 -1.27065,0 -3.17653,3.74513 -4.0776,8.01263 -0.29607,1.40221 -0.79119,2.87727 -1.10026,3.2779 -0.30908,0.40063 -0.80344,2.19087 -1.09858,3.9783 -0.29515,1.78744 -0.8041,3.75418 -1.131,4.37053 -0.32689,0.61635 -0.7843,2.02206 -1.01644,3.1238 -0.31444,1.49227 -0.85553,2.00316 -2.12159,2.00316 -1.81379,0 -1.73303,0.26336 -4.13222,-13.47579 -0.41977,-2.40379 -1.07595,-4.93971 -1.45818,-5.63538 -0.38224,-0.69567 -0.69498,-1.78502 -0.69498,-2.42078 0,-0.69786 -0.49291,-1.061 -1.24387,-0.91638 -1.42057,0.27358 -2.78172,4.113 -4.34303,12.25043 -3.70349,19.30242 -3.74775,19.46031 -5.59381,19.95558 -0.86166,0.23118 -1.76716,0.42479 -2.01223,0.43027 -0.24507,0.005 -0.6842,-8.65377 -0.97585,-19.24274 z"
       style="fill:#ff3e00;fill-opacity:1;stroke:#ff3e00;stroke-width:0.29136842;stroke-miterlimit:4;stroke-dasharray:none;stroke-opacity:1" />
  </g>
  <ellipse
     style="opacity:0;fill:#ff7eff;fill-opacity:1;stroke:#ffffff;stroke-width:12;stroke-linecap:round;stroke-linejoin:round;stroke-miterlimit:4;stroke-dasharray:none;stroke-opacity:1"
     id="path838"
     cx="106.71368"
     cy="86.237907"
     rx="65.922104"
     ry="46.254734" />
</svg>
