<svg
    xmlns="http://www.w3.org/2000/svg" 
    viewBox="0 0 576 512"
    role="img"
    focusable="false">
    <path
        style="fill:#000000;fill-opacity:1"
        d="M384 96c88.426 0 160 71.561 160 160 0 88.426-71.561 160-160 160H192c-88.426 0-160-71.561-160-160 0-88.425 71.561-160 160-160h192m0-32H192C85.961 64 0 149.961 0 256s85.961 192 192 192h192c106.039 0 192-85.961 192-192S490.039 64 384 64zm0 304c61.856 0 112-50.144 112-112s-50.144-112-112-112-112 50.144-112 112c0 28.404 10.574 54.339 27.999 74.082C320.522 353.335 350.548 368 384 368z"/>
    <path
        class="--color"
        d="M 168.79659,415.59976 C 123.81498,408.7049 82.603364,382.78416 58.156477,346.01078 24.83729,295.89158 22.401322,228.64472 51.753045,175.75371 c 9.891364,-17.82398 39.922468,-48.43627 57.792225,-58.91067 15.2177,-8.9199 37.48118,-16.77424 56.04795,-19.773198 18.84263,-3.043511 225.97094,-3.043511 244.81356,0 18.56677,2.998958 40.83024,10.853298 56.04795,19.773198 17.86975,10.4744 47.90085,41.08669 57.79223,58.91067 29.35173,52.89101 26.91576,120.13787 -6.40345,170.25707 -20.22736,30.42632 -52.99338,54.21019 -90.14018,65.43007 -15.84191,4.78492 -20.81055,4.90728 -132.11011,5.36304 -62.64407,0.2565 -120.80255,-0.28535 -126.79663,-1.20413 z M 417.55507,361.6388 c 70.22811,-21.69125 99.41117,-103.43997 59.29809,-164.56053 -17.12846,-26.09877 -47.80502,-46.0503 -77.89932,-50.66444 -57.86455,-8.87195 -110.67002,28.04954 -123.12483,85.1023 -3.77235,17.28032 -1.73245,47.70286 4.23624,63.17792 13.19836,34.21957 39.89407,58.73832 73.85896,68.10406 16.04515,4.4244 47.40261,3.85308 63.63086,-1.15931 z"
        style="fill:#ff6f71;fill-opacity:1;stroke-width:2.16949153"/>
</svg>
