<?xml version="1.0" encoding="utf-8"?>
<!-- Generator: Adobe Illustrator 26.3.1, SVG Export Plug-In . SVG Version: 6.00 Build 0)  -->
<svg version="1.1" id="Layer_1" xmlns="http://www.w3.org/2000/svg" xmlns:xlink="http://www.w3.org/1999/xlink" x="0px" y="0px"
	 viewBox="0 0 512 256" style="enable-background:new 0 0 512 256;" xml:space="preserve">
<style type="text/css">
	.st0{fill:#239F85;}
	.st1{fill:#FFFFFF;stroke:#FFFFFF;stroke-width:36;stroke-miterlimit:10;}
</style>
<path class="st0" d="M377.7,256H141.3C63.2,256,0,195.7,0,121.3l0,0C0,54.3,57,0,127.2,0h250.5C451.9,0,512,57.3,512,128l0,0
	C512,198.7,451.9,256,377.7,256z"/>
<path class="st1" d="M382.7,206.3c43.2,0,78.3-34.9,78.3-78.3s-34.9-78.3-78.3-78.3c-43.4,0-78.3,35.1-78.3,78.5
	c0,19.9,7.4,38,19.5,51.9C338.2,196.1,359.3,206.3,382.7,206.3z"/>
</svg>
