<?xml version="1.0" encoding="utf-8"?>
<!-- Generator: Adobe Illustrator 21.1.0, SVG Export Plug-In . SVG Version: 6.00 Build 0)  -->
<svg version="1.1" id="Layer_1" xmlns="http://www.w3.org/2000/svg" xmlns:xlink="http://www.w3.org/1999/xlink" x="0px" y="0px"
	 viewBox="0 0 1024 1024" style="enable-background:new 0 0 1024 1024;" xml:space="preserve">
<style type="text/css">
	.st0{fill:#343A40;}
	.st1{fill-rule:evenodd;clip-rule:evenodd;fill:#F39F1F;}
	.st2{fill-rule:evenodd;clip-rule:evenodd;fill:#DFDB1F;}
	.st3{fill-rule:evenodd;clip-rule:evenodd;fill:#E21F26;}
	.st4{fill-rule:evenodd;clip-rule:evenodd;fill:#C15527;}
	.st5{fill-rule:evenodd;clip-rule:evenodd;fill:#AE1F24;}
	.st6{fill-rule:evenodd;clip-rule:evenodd;fill:#B0C836;}
	.st7{fill-rule:evenodd;clip-rule:evenodd;fill:#A64E94;}
</style>
<path class="st0" d="M1024,512c0,282.8-229.2,512-512,512c0,0,0,0,0,0C229.2,1024,0,794.8,0,512c0,0,0,0,0,0C0,229.2,229.2,0,512,0
	S1024,229.2,1024,512z"/>
<g>
	<path class="st1" d="M553.2,629.5c0-20.2-3.2-39.6-9.1-57.8c-12.2,2.5-24.8,3.8-37.7,3.8c-10.5,0-20.8-0.9-30.9-2.6
		c-5.6,17.8-8.7,36.8-8.7,56.5c0,45.5,16.2,87.1,43.2,119.5C537,716.7,553.2,675,553.2,629.5"/>
	<path class="st2" d="M684.8,445c-20.3,64-74,113.1-140.7,126.8c5.9,18.2,9.1,37.6,9.1,57.8c0,45.5-16.2,87.1-43.2,119.5
		c34.3,41.3,86,67.5,143.9,67.5c103.3,0,187.1-83.8,187.1-187.1C841,536.7,773.4,459.7,684.8,445"/>
	<path class="st3" d="M328.4,446.2C243.1,463.7,179,539.1,179,629.5c0,103.3,83.8,187.1,187.1,187.1c57.9,0,109.6-26.3,143.9-67.5
		c-27-32.4-43.2-74.1-43.2-119.5c0-19.7,3.1-38.7,8.7-56.5C406.2,561.5,349.7,511.8,328.4,446.2"/>
	<path class="st4" d="M475.5,573c10,1.7,20.4,2.5,30.9,2.5c12.9,0,25.5-1.3,37.7-3.8C536.7,549,525,528.1,510,510
		C494.7,528.4,482.9,549.7,475.5,573"/>
	<path class="st5" d="M366.1,442.5c-12.9,0-25.5,1.3-37.7,3.8c21.3,65.6,77.7,115.3,147.1,126.8c7.4-23.3,19.2-44.6,34.5-63
		C475.7,468.8,424,442.5,366.1,442.5"/>
	<g>
		<path class="st6" d="M684.8,445c-10-1.7-20.4-2.6-30.9-2.6c-57.9,0-109.6,26.3-143.9,67.6c15,18,26.7,38.9,34.1,61.8
			C610.8,558.1,664.5,509,684.8,445"/>
	</g>
	<path class="st7" d="M506.4,201.4c-103.3,0-187.1,83.8-187.1,187.1c0,20.2,3.2,39.6,9.1,57.8c12.2-2.5,24.8-3.8,37.7-3.8
		c57.9,0,109.6,26.3,143.9,67.6c34.3-41.3,86-67.6,143.9-67.6c10.5,0,20.8,0.9,30.9,2.6c5.6-17.8,8.7-36.8,8.7-56.5
		C693.5,285.2,609.7,201.4,506.4,201.4"/>
</g>
</svg>
